<?xml version="1.0" encoding="UTF-8"?>
<svg width="12px" height="12px" viewBox="0 0 12 12" version="1.1" xmlns="http://www.w3.org/2000/svg" xmlns:xlink="http://www.w3.org/1999/xlink">
    <!-- Generator: sketchtool 53.2 (72643) - https://sketchapp.com -->
    <title>1C6E773E-F237-4CC4-9F2D-D3E04D760C97</title>
    <desc>Created with sketchtool.</desc>
    <g id="FAQs-&amp;-News" stroke="none" stroke-width="1" fill="none" fill-rule="evenodd">
        <g id="News" transform="translate(-172.000000, -512.000000)" fill="#FFFFFF">
            <g id="Group-13" transform="translate(170.000000, 396.000000)">
                <g id="Group-12" transform="translate(0.000000, 32.000000)">
                    <g id="Group-5" transform="translate(2.000000, 80.000000)">
                        <g id="icon-clock" transform="translate(0.000000, 4.000000)">
                            <path d="M5.94391304,0 C2.6613913,0 0,2.66113043 0,5.94391304 C0,9.22669565 2.6613913,11.8878261 5.94391304,11.8878261 C9.22643478,11.8878261 11.8878261,9.22669565 11.8878261,5.94391304 C11.8878261,2.66113043 9.22643478,0 5.94391304,0 Z M5.94391304,10.3372174 C3.52121739,10.3372174 1.5506087,8.36608696 1.5506087,5.94391304 C1.5506087,3.52173913 3.52121739,1.55034783 5.94391304,1.55034783 C8.3666087,1.55034783 10.3372174,3.52121739 10.3372174,5.94365217 C10.3372174,8.36608696 8.3666087,10.3372174 5.94391304,10.3372174 Z" id="Shape" fill-rule="nonzero"></path>
                            <path d="M8.05147826,5.1626087 L6.75443478,5.1626087 L6.75443478,2.84243478 C6.75443478,2.41434783 6.41034783,2.06713043 5.98226087,2.06713043 C5.55417391,2.06713043 5.20982609,2.41434783 5.20982609,2.84243478 L5.20982609,5.94365217 C5.20982609,6.372 5.55573913,6.72208696 5.98382609,6.72208696 L8.05121739,6.72208696 C8.47930435,6.72208696 8.82652174,6.37043478 8.82652174,5.94234783 C8.82652174,5.51426087 8.47982609,5.1626087 8.05147826,5.1626087 Z" id="Path"></path>
                        </g>
                    </g>
                </g>
            </g>
        </g>
    </g>
</svg>