<?xml version="1.0" encoding="UTF-8"?>
<svg width="16px" height="14px" viewBox="0 0 16 14" version="1.1" xmlns="http://www.w3.org/2000/svg" xmlns:xlink="http://www.w3.org/1999/xlink">
    <!-- Generator: sketchtool 53.2 (72643) - https://sketchapp.com -->
    <title>A500C4A7-95EB-49FD-B93E-9D7ED3B822B3</title>
    <desc>Created with sketchtool.</desc>
    <g id="Ui-elements" stroke="none" stroke-width="1" fill="none" fill-rule="evenodd">
        <g transform="translate(-1105.000000, -642.000000)" fill="#474747" fill-rule="nonzero" id="icon-category">
            <path d="M1120.9,647.038562 L1120.9,652.961615 C1120.9,653.71735 1120.6194,654.389136 1120.0813,654.926988 C1119.54308,655.465508 1118.87125,655.746224 1118.11539,655.746224 L1107.88461,655.746224 C1107.12888,655.746224 1106.45707,655.465513 1105.91893,654.927241 C1105.38061,654.389052 1105.1,653.717282 1105.1,652.961615 L1105.1,644.884609 C1105.1,644.12887 1105.3806,643.457095 1105.91878,642.919046 C1106.45704,642.380655 1107.1288,642.1 1107.88461,642.1 L1110.57692,642.1 C1111.3326,642.1 1112.00438,642.380666 1112.54266,642.918945 C1112.92592,643.302178 1113.17857,643.753113 1113.2923,644.253835 L1118.11542,644.253835 C1118.87119,644.253835 1119.54295,644.534412 1120.08119,645.072725 C1120.61954,645.611131 1120.90004,646.282836 1120.9,647.038562 Z M1118.80833,646.345454 C1118.60632,646.14341 1118.39186,646.053835 1118.11542,646.053835 L1112.46156,646.053835 C1111.96451,646.053835 1111.56156,645.650891 1111.56156,645.153835 L1111.56156,644.884609 C1111.56156,644.608309 1111.47195,644.39381 1111.26989,644.191762 C1111.06776,643.989636 1110.85322,643.9 1110.57692,643.9 L1107.88461,643.9 C1107.60821,643.9 1107.39376,643.989594 1107.19157,644.191838 C1106.98957,644.393785 1106.9,644.608232 1106.9,644.884609 L1106.9,652.961615 C1106.9,653.237909 1106.98958,653.452355 1107.19172,653.654449 C1107.39382,653.856595 1107.60832,653.946224 1107.88461,653.946224 L1118.11539,653.946224 C1118.39176,653.946224 1118.60618,653.856632 1118.80848,653.654221 C1119.01046,653.452339 1119.1,653.237959 1119.1,652.961615 L1119.1,647.03851 C1119.10002,646.762041 1119.01047,646.547609 1118.80833,646.345454 Z"></path>
        </g>
    </g>
</svg>