<?xml version="1.0" encoding="UTF-8"?>
<svg width="17px" height="16px" viewBox="0 0 17 16" version="1.1" xmlns="http://www.w3.org/2000/svg" xmlns:xlink="http://www.w3.org/1999/xlink">
    <!-- Generator: sketchtool 53.2 (72643) - https://sketchapp.com -->
    <title>35FF0CF5-CB19-48D6-A72D-DFCA991879AF</title>
    <desc>Created with sketchtool.</desc>
    <g id="Ui-elements" stroke="none" stroke-width="1" fill="none" fill-rule="evenodd">
        <g transform="translate(-934.000000, -642.000000)" fill="#474747" fill-rule="nonzero" id="add-user">
            <g transform="translate(934.000000, 642.000000)">
                <path d="M0.736196319,14.0245399 L6.90041718,14.0245399 C7.84500613,15.2195337 9.30684663,15.9877301 10.9447853,15.9877301 C13.7863558,15.9877301 16.0981595,13.6759264 16.0981595,10.8343558 C16.0981595,7.99278528 13.7863558,5.6809816 10.9447853,5.6809816 C9.2521227,5.6809816 7.74748466,6.50139877 6.80746012,7.76539877 C6.42645399,7.68549693 6.03720245,7.64417178 5.64417178,7.64417178 C2.53197546,7.64417178 0,10.1761472 0,13.2883436 C0,13.6949202 0.329619632,14.0245399 0.736196319,14.0245399 Z M10.9447853,7.15337423 C12.9744785,7.15337423 14.6257669,8.80466258 14.6257669,10.8343558 C14.6257669,12.8640491 12.9744785,14.5153374 10.9447853,14.5153374 C8.91509202,14.5153374 7.26380368,12.8640491 7.26380368,10.8343558 C7.26380368,8.80466258 8.91509202,7.15337423 10.9447853,7.15337423 Z" id="XMLID_458_"></path>
                <path d="M5.64417178,0.0122699387 C3.94591411,0.0122699387 2.5643681,1.39386503 2.5643681,3.09207362 C2.5643681,4.79028221 3.94591411,6.17177914 5.64417178,6.17177914 C7.34238037,6.17177914 8.72392638,4.79028221 8.72392638,3.09207362 C8.72392638,1.39386503 7.34238037,0.0122699387 5.64417178,0.0122699387 Z" id="XMLID_461_"></path>
                <path d="M9.47239264,11.5705521 L10.208589,11.5705521 L10.208589,12.3067485 C10.208589,12.7133252 10.5382086,13.0429448 10.9447853,13.0429448 C11.351362,13.0429448 11.6809816,12.7133252 11.6809816,12.3067485 L11.6809816,11.5705521 L12.4171779,11.5705521 C12.8237546,11.5705521 13.1533742,11.2409325 13.1533742,10.8343558 C13.1533742,10.4277791 12.8237546,10.0981595 12.4171779,10.0981595 L11.6809816,10.0981595 L11.6809816,9.36196319 C11.6809816,8.9553865 11.351362,8.62576687 10.9447853,8.62576687 C10.5382086,8.62576687 10.208589,8.9553865 10.208589,9.36196319 L10.208589,10.0981595 L9.47239264,10.0981595 C9.06581595,10.0981595 8.73619632,10.4277791 8.73619632,10.8343558 C8.73619632,11.2409325 9.06581595,11.5705521 9.47239264,11.5705521 Z" id="XMLID_462_"></path>
            </g>
        </g>
    </g>
</svg>