<?xml version="1.0" encoding="UTF-8"?>
<svg width="16px" height="13px" viewBox="0 0 16 13" version="1.1" xmlns="http://www.w3.org/2000/svg" xmlns:xlink="http://www.w3.org/1999/xlink">
    <!-- Generator: sketchtool 53.2 (72643) - https://sketchapp.com -->
    <title>BADE7847-C7FD-48D1-A593-E2455C15D7C3</title>
    <desc>Created with sketchtool.</desc>
    <g id="Ui-elements" stroke="none" stroke-width="1" fill="none" fill-rule="evenodd">
        <g transform="translate(-133.000000, -643.000000)" fill="#474747" id="icon-business">
            <g transform="translate(132.919449, 643.000000)">
                <path d="M8.796,7.93446154 L8.796,7.59076923 C8.796,7.17230769 8.45630769,6.83292308 8.03815385,6.83292308 C7.61938462,6.83292308 7.28,7.17230769 7.28,7.59076923 L7.28,7.93446154 C7.28,8.35261538 7.61938462,8.69230769 8.03815385,8.69230769 C8.45630769,8.69230769 8.796,8.35292308 8.796,7.93446154 Z" id="Path"></path>
                <path d="M9.31569231,8.35353846 C9.148,8.90338462 8.64184615,9.30738462 8.03815385,9.30738462 C7.43415385,9.30738462 6.928,8.90369231 6.76,8.35353846 L1.53876923,8.35353846 C1.20923077,8.35353846 0.897846154,8.27692308 0.618461538,8.144 L0.618461538,11.6107692 C0.618461538,12.2876923 1.17230769,12.8415385 1.84923077,12.8415385 L14.2264615,12.8415385 C14.9033846,12.8415385 15.4572308,12.2876923 15.4572308,11.6107692 L15.4572308,8.14430769 C15.1778462,8.27723077 14.8664615,8.35384615 14.5372308,8.35384615 L9.31569231,8.35353846 L9.31569231,8.35353846 Z" id="Path"></path>
                <path d="M14.4855385,2.12830769 L11.5310769,2.12830769 C11.3529231,1.01261538 10.3858462,0.156615385 9.22092308,0.156615385 L6.85353846,0.156615385 C5.68830769,0.156615385 4.72215385,1.01261538 4.54338462,2.12830769 L1.58953846,2.12830769 C0.884307692,2.12830769 0.307384615,2.68215385 0.307384615,3.35907692 L0.307384615,6.2 C0.307384615,6.87938462 0.858461538,7.43076923 1.53815385,7.43076923 L6.70123077,7.43076923 C6.71876923,7.07723077 6.87076923,6.75815385 7.11107692,6.52830769 C7.11846154,6.52153846 7.12707692,6.51569231 7.13476923,6.50892308 C7.188,6.46 7.24338462,6.41384615 7.304,6.37384615 C7.32553846,6.35938462 7.35015385,6.34953846 7.37261538,6.33661538 C7.42246154,6.308 7.47169231,6.27815385 7.52553846,6.256 C7.56769231,6.23846154 7.61323077,6.22830769 7.65753846,6.21507692 C7.69569231,6.20369231 7.732,6.18861538 7.77169231,6.18061538 C7.85784615,6.16307692 7.94676923,6.15384615 8.03753846,6.15384615 C8.12861538,6.15384615 8.21723077,6.16338462 8.30307692,6.18061538 C8.34246154,6.18861538 8.37907692,6.20369231 8.41753846,6.21507692 C8.46184615,6.22830769 8.50676923,6.23846154 8.54953846,6.25630769 C8.60307692,6.27846154 8.652,6.308 8.70184615,6.33661538 C8.72430769,6.34984615 8.74892308,6.35969231 8.77107692,6.37415385 C8.83169231,6.41384615 8.88676923,6.46 8.94,6.50892308 C8.94769231,6.516 8.95723077,6.52153846 8.964,6.52892308 C9.20461538,6.75907692 9.35630769,7.07723077 9.37384615,7.43138462 L14.5369231,7.43138462 C15.2166154,7.43138462 15.7676923,6.88030769 15.7676923,6.20061538 L15.7676923,3.35969231 C15.7676923,2.68215385 15.1907692,2.12830769 14.4855385,2.12830769 Z M5.72892308,2.12830769 C5.88584615,1.65415385 6.328,1.30861538 6.85415385,1.30861538 L9.22153846,1.30861538 C9.74738462,1.30861538 10.1895385,1.65415385 10.3464615,2.12830769 L5.72892308,2.12830769 Z" id="Shape" fill-rule="nonzero"></path>
            </g>
        </g>
    </g>
</svg>