<?xml version="1.0" encoding="UTF-8"?>
<svg width="13px" height="14px" viewBox="0 0 13 14" version="1.1" xmlns="http://www.w3.org/2000/svg" xmlns:xlink="http://www.w3.org/1999/xlink">
    <!-- Generator: sketchtool 53.2 (72643) - https://sketchapp.com -->
    <title>02545D0F-2321-428F-BDFC-554B704A3E54</title>
    <desc>Created with sketchtool.</desc>
    <g id="Ui-elements" stroke="none" stroke-width="1" fill="none" fill-rule="evenodd">
        <g transform="translate(-225.000000, -604.000000)" fill="#474747" id="icon-download">
            <g transform="translate(225.000000, 604.000000)">
                <path d="M11.4468476,12 L1.17272119,12 C0.537256506,12 0.0220669145,12.4477272 0.0220669145,13 C0.0220669145,13.5522728 0.53730855,14 1.17272119,14 L11.4468476,14 C12.0823123,14 12.5975019,13.5522728 12.5975019,13 C12.5975019,12.4477272 12.0823123,12 11.4468476,12 Z M5.45849071,10.3639554 C5.66843866,10.5742677 5.93808178,10.6838736 6.21266914,10.7026617 C6.24524907,10.7054201 6.27652788,10.7124461 6.30978439,10.7124461 C6.34272862,10.7124461 6.37369517,10.7054201 6.40591078,10.7027658 C6.6809145,10.6841859 6.95097398,10.5745279 7.16118216,10.3639554 L10.8440149,6.67050558 C11.3051822,6.20860967 11.3051822,5.45958364 10.8440149,4.99768773 C10.3828996,4.53573978 9.63527881,4.53573978 9.17411152,4.99768773 L7.47423048,6.70246097 L7.47423048,1.16439405 C7.47423048,0.521330855 6.95295167,0 6.30978439,0 C5.66672119,0 5.14544238,0.521330855 5.14544238,1.16439405 L5.14544238,6.70246097 L3.44556134,4.99768773 C2.9844461,4.53573978 2.23677323,4.53573978 1.77565799,4.99768773 C1.31454275,5.45958364 1.31454275,6.20860967 1.77565799,6.67050558 L5.45849071,10.3639554 Z" id="Shape"></path>
            </g>
        </g>
    </g>
</svg>