<?xml version="1.0" encoding="UTF-8"?>
<svg width="14px" height="14px" viewBox="0 0 14 14" version="1.1" xmlns="http://www.w3.org/2000/svg" xmlns:xlink="http://www.w3.org/1999/xlink">
    <!-- Generator: sketchtool 53.2 (72643) - https://sketchapp.com -->
    <title>FE644A9E-E323-4B8A-ACB7-781A7C6B4135</title>
    <desc>Created with sketchtool.</desc>
    <g id="Ui-elements" stroke="none" stroke-width="1" fill="none" fill-rule="evenodd">
        <g transform="translate(-405.000000, -604.000000)" fill="#474747" id="icon-edit">
            <g transform="translate(405.000000, 604.000000)">
                <path d="M8.39786617,2.93203717 C8.03142007,2.56517472 7.43722677,2.56517472 7.07083271,2.93203717 L6.73910037,3.26413383 L2.09448327,7.91364312 L2.0956803,7.91484015 L1.94933086,8.06160595 C1.94933086,8.06160595 1.4825948,8.53167286 0.428795539,11.9336729 C0.421405204,11.9574572 0.414066914,11.9810855 0.406624535,12.0051822 C0.387836431,12.0661264 0.368840149,12.1280595 0.349687732,12.1908253 C0.33272119,12.2463048 0.315546468,12.3029294 0.298319703,12.3599182 C0.283799257,12.4079554 0.2693829,12.4554721 0.254654275,12.5045502 C0.221241636,12.6159257 0.187412639,12.7292788 0.152907063,12.8463271 C0.0771821561,13.1032714 -0.107784387,13.682684 0.1013829,13.8924238 C0.302795539,14.094461 0.888297398,13.9167286 1.14451301,13.8407435 C1.26067658,13.80629 1.37324907,13.772513 1.48379182,13.7391524 C1.53484758,13.7237472 1.58434201,13.7086543 1.63425279,13.6934572 C1.68791078,13.6771152 1.74130855,13.6608773 1.79361338,13.6447955 C1.85965799,13.6244981 1.9247658,13.604461 1.98878067,13.5845799 C2.00788104,13.5786468 2.0266171,13.5727658 2.04556134,13.5668848 C5.2823197,12.5590409 5.86339777,12.0860595 5.91169517,12.0428104 C5.91205948,12.0425502 5.91205948,12.0425502 5.9123197,12.04229 C5.91434944,12.0404164 5.91575465,12.0391673 5.91575465,12.0391673 L6.06559108,11.8889665 L6.07563569,11.8990112 L10.7203569,7.24950186 L10.7203048,7.24944981 L11.0520372,6.91735316 C11.4184833,6.55054275 11.4184833,5.95577695 11.0520372,5.5889145 L8.39786617,2.93203717 Z M5.38136059,11.4384684 C5.37730112,11.4412268 5.37178439,11.4448178 5.36595539,11.448513 C5.36272862,11.4505948 5.35882528,11.4530409 5.35497398,11.4554349 C5.35107063,11.457881 5.34680297,11.4605353 5.34227509,11.4632937 C5.33826766,11.4657398 5.33410409,11.4682379 5.32962825,11.4709442 C5.17510781,11.5634275 4.72164312,11.802052 3.62110781,12.2004535 C3.49250558,12.2469814 3.35245353,12.2963197 3.20573978,12.3471673 L1.64127881,10.7810929 C1.69228253,10.6332862 1.74167286,10.4921933 1.78835688,10.3626022 C2.18587361,9.25743494 2.42428996,8.8026171 2.51625279,8.64830483 C2.51849071,8.64460967 2.52052045,8.64122677 2.52255019,8.63789591 C2.52577695,8.63258736 2.52879554,8.62764312 2.53160595,8.62311524 C2.53384387,8.61952416 2.53618587,8.61577695 2.53816357,8.61270632 C2.54185874,8.60692937 2.54544981,8.60141264 2.54820818,8.59730112 L2.66270632,8.48249071 L5.49835688,11.3211078 L5.38136059,11.4384684 Z M13.706,2.93203717 L11.051881,0.275159851 C10.6854349,-0.0916505576 10.0913457,-0.0916505576 9.72484758,0.275159851 L9.0613829,0.939405204 C8.6949368,1.30621561 8.6949368,1.90098141 9.0613829,2.26779182 L11.7154498,4.92466914 C12.0818439,5.29147955 12.6760372,5.29147955 13.0424833,4.92466914 L13.706,4.26047584 C14.0724461,3.89361338 14.0724461,3.29884758 13.706,2.93203717 Z" id="Shape"></path>
            </g>
        </g>
    </g>
</svg>