<?xml version="1.0" encoding="UTF-8"?>
<svg width="15px" height="13px" viewBox="0 0 15 13" version="1.1" xmlns="http://www.w3.org/2000/svg" xmlns:xlink="http://www.w3.org/1999/xlink">
    <!-- Generator: sketchtool 53.2 (72643) - https://sketchapp.com -->
    <title>ED6C8CFB-6E1F-41FA-A921-0BBFEFEB6BF9</title>
    <desc>Created with sketchtool.</desc>
    <g id="Ui-elements" stroke="none" stroke-width="1" fill="none" fill-rule="evenodd">
        <g transform="translate(-797.000000, -642.000000)" fill="#474747" id="icon-chat-2">
            <g transform="translate(797.000000, 642.000000)">
                <path d="M12.5675926,-1.77635684e-15 L1.93347994,-1.77635684e-15 C0.932361111,-1.77635684e-15 -4.97379915e-14,0.936790123 -4.97379915e-14,1.93342593 L-4.97379915e-14,8.7005787 C-4.97379915e-14,9.69726852 0.932361111,10.6340586 1.93347994,10.6340586 L2.41683642,10.6340586 L2.41683642,13.0508951 L6.76715278,10.6340586 L12.5675386,10.6340586 C13.5686034,10.6340586 14.5009645,9.69721451 14.5009645,8.7005787 L14.5009645,1.93342593 C14.5010185,0.936790123 13.5686574,-1.77635684e-15 12.5675926,-1.77635684e-15 Z M4,6.47709877 C4.55228475,6.47709877 5,6.02938352 5,5.47709877 C5,4.92481402 4.55228475,4.47709877 4,4.47709877 C3.44771525,4.47709877 3,4.92481402 3,5.47709877 C3,6.02938352 3.44771525,6.47709877 4,6.47709877 Z M7,6.47709877 C7.55228475,6.47709877 8,6.02938352 8,5.47709877 C8,4.92481402 7.55228475,4.47709877 7,4.47709877 C6.44771525,4.47709877 6,4.92481402 6,5.47709877 C6,6.02938352 6.44771525,6.47709877 7,6.47709877 Z M10,6.47709877 C10.5522847,6.47709877 11,6.02938352 11,5.47709877 C11,4.92481402 10.5522847,4.47709877 10,4.47709877 C9.44771525,4.47709877 9,4.92481402 9,5.47709877 C9,6.02938352 9.44771525,6.47709877 10,6.47709877 Z"></path>
            </g>
        </g>
    </g>
</svg>