<?xml version="1.0" encoding="UTF-8"?>
<svg width="16px" height="14px" viewBox="0 0 16 14" version="1.1" xmlns="http://www.w3.org/2000/svg" xmlns:xlink="http://www.w3.org/1999/xlink">
    <!-- Generator: sketchtool 53.2 (72643) - https://sketchapp.com -->
    <title>0A83CD99-1614-401E-B62C-2051BC982370</title>
    <desc>Created with sketchtool.</desc>
    <g id="Ui-elements" stroke="none" stroke-width="1" fill="none" fill-rule="evenodd">
        <g transform="translate(-163.000000, -643.000000)" fill="#474747" id="icon-refresh">
            <g transform="translate(163.000000, 643.000000)">
                <path d="M12.6625,9.99344444 L15.9097222,6.51322222 L13.9013889,6.51322222 C13.6462222,2.90122222 10.6375556,0.0498888889 6.9605,0.0498888889 C3.11611111,0.0498888889 0,3.16605556 0,7.01044444 C0,10.8547778 3.11611111,13.9709444 6.9605,13.9709444 C8.62927778,13.9709444 10.1600556,13.3825 11.3588889,12.4034444 L9.58477778,10.6292778 C8.84727778,11.165 7.94227778,11.485 6.9605,11.485 C4.48916667,11.485 2.48588889,9.48172222 2.48588889,7.01038889 C2.48588889,4.53905556 4.48916667,2.53572222 6.9605,2.53572222 C9.26355556,2.53572222 11.1583889,4.27611111 11.4059444,6.51316667 L9.44638889,6.51316667 L12.6625,9.99344444 Z" id="Path"></path>
            </g>
        </g>
    </g>
</svg>