<?xml version="1.0" encoding="UTF-8"?>
<svg width="14px" height="14px" viewBox="0 0 14 14" version="1.1" xmlns="http://www.w3.org/2000/svg" xmlns:xlink="http://www.w3.org/1999/xlink">
    <!-- Generator: sketchtool 53.2 (72643) - https://sketchapp.com -->
    <title>07DA893A-ACEC-419A-853A-8A93E7126B52</title>
    <desc>Created with sketchtool.</desc>
    <g id="Ui-elements" stroke="none" stroke-width="1" fill="none" fill-rule="evenodd">
        <g transform="translate(-165.000000, -604.000000)" fill="#474747" id="icon-close">
            <g transform="translate(165.000000, 604.000000)">
                <path d="M8.62269159,7.0321215 L13.5904673,2.06434579 C14.047757,1.60705607 14.047757,0.86564486 13.5904673,0.408420561 C13.1331776,-0.0488691589 12.3918318,-0.0488691589 11.9345421,0.408420561 L6.96670093,5.37626168 L1.99885981,0.40835514 C1.54157009,-0.0489345794 0.800224299,-0.0489345794 0.342934579,0.40835514 C-0.11428972,0.86564486 -0.11428972,1.60705607 0.342934579,2.06428037 L5.3107757,7.03205607 L0.342934579,11.9998972 C-0.11428972,12.4571869 -0.11428972,13.1985981 0.342934579,13.6558224 C0.800224299,14.1131121 1.54157009,14.1131121 1.99885981,13.6558224 L6.96670093,8.68798131 L11.9345421,13.6558224 C12.3917664,14.1131121 13.1331776,14.1131121 13.5904673,13.6558224 C14.047757,13.1985327 14.047757,12.4571869 13.5904673,11.9998972 L8.62269159,7.0321215 Z" id="Path"></path>
            </g>
        </g>
    </g>
</svg>