<?xml version="1.0" encoding="UTF-8"?>
<svg width="16px" height="15px" viewBox="0 0 16 15" version="1.1" xmlns="http://www.w3.org/2000/svg" xmlns:xlink="http://www.w3.org/1999/xlink">
    <!-- Generator: sketchtool 53.2 (72643) - https://sketchapp.com -->
    <title>B60A475D-CE07-4F88-AD01-4349D4375C70</title>
    <desc>Created with sketchtool.</desc>
    <g id="Ui-elements" stroke="none" stroke-width="1" fill="none" fill-rule="evenodd">
        <g transform="translate(-735.000000, -642.000000)" fill="#474747" fill-rule="nonzero" id="icon-exit">
            <g transform="translate(734.983467, 642.000000)">
                <path d="M8.88028402,7.50851763 C8.88028402,8.10193496 8.39944279,8.58186464 7.80693701,8.58186464 C7.21397546,8.58186464 6.73313423,8.10102341 6.73313423,7.50851763 L6.73313423,1.92392278 C6.73313423,1.33096123 7.21397546,0.85012 7.80693701,0.85012 C8.39989856,0.85012 8.88028402,1.33050545 8.88028402,1.92392278 L8.88028402,7.50851763 Z M15.0756156,7.54452375 C15.0756156,11.5731073 11.7981471,14.85012 7.7691078,14.85012 C3.7400685,14.85012 0.4626,11.5731073 0.4626,7.54452375 C0.4626,5.59153355 1.22328626,3.75567718 2.60519205,2.37605027 C2.81484794,2.16639438 3.08922369,2.0620222 3.36405522,2.0620222 C3.63888675,2.0620222 3.91417405,2.16685015 4.12382994,2.37696181 C4.54314172,2.79672937 4.54268595,3.47628792 4.12291839,3.8955997 C3.1480185,4.87004382 2.61066133,6.16580838 2.61066133,7.54452375 C2.61066133,10.3885515 4.92462429,12.7016029 7.7691078,12.7016029 C10.6135913,12.7016029 12.9270985,10.3885515 12.9270985,7.54452375 C12.9270985,6.16671993 12.3911086,4.87141114 11.4171203,3.89696702 C10.9978085,3.47719947 10.9982643,2.79764092 11.4175761,2.37787336 C11.8373436,1.95810581 12.5169022,1.95901735 12.9366697,2.37832914 C14.3153851,3.75841183 15.0756156,5.59335664 15.0756156,7.54452375 Z" id="Shape"></path>
            </g>
        </g>
    </g>
</svg>