<?xml version="1.0" encoding="UTF-8"?>
<svg width="14px" height="14px" viewBox="0 0 14 14" version="1.1" xmlns="http://www.w3.org/2000/svg" xmlns:xlink="http://www.w3.org/1999/xlink">
    <!-- Generator: sketchtool 53.2 (72643) - https://sketchapp.com -->
    <title>50B89CD9-2963-4521-AE0F-35C7A2EBF257</title>
    <desc>Created with sketchtool.</desc>
    <g id="Ui-elements" stroke="none" stroke-width="1" fill="none" fill-rule="evenodd">
        <g transform="translate(-767.000000, -642.000000)" fill="#474747" id="icon-filter">
            <g transform="translate(767.000000, 642.000000)">
                <path d="M3.28500372,4.65757621 L2.81920446,4.65757621 L2.81920446,0.69864684 C2.81920446,0.312736059 2.50641636,0 2.12060967,0 C1.73480297,0 1.42201487,0.312736059 1.42201487,0.69864684 L1.42201487,4.65757621 L0.956267658,4.65757621 C0.441806691,4.65757621 0.0247732342,5.07460967 0.0247732342,5.58907063 L0.0247732342,6.52056506 C0.0247732342,7.03502602 0.441806691,7.45205948 0.956267658,7.45205948 L1.42201487,7.45205948 L1.42201487,13.2740297 C1.42201487,13.6598885 1.73480297,13.9726766 2.12060967,13.9726766 C2.5064684,13.9726766 2.81925651,13.6598364 2.81925651,13.2740297 L2.81925651,7.45205948 L3.28505576,7.45205948 C3.79946468,7.45205948 4.21649814,7.03502602 4.21649814,6.52056506 L4.21649814,5.58907063 C4.2164461,5.07460967 3.79946468,4.65757621 3.28500372,4.65757621 Z M7.94257993,8.8494052 L7.47678067,8.8494052 L7.47678067,0.69864684 C7.47678067,0.312788104 7.16399257,0 6.77813383,0 C6.39227509,0 6.07953903,0.312736059 6.07953903,0.69864684 L6.07953903,8.8494052 L5.61379182,8.8494052 C5.09933086,8.8494052 4.6822974,9.26643866 4.6822974,9.78089963 L4.6822974,10.7123941 C4.6822974,11.226855 5.09933086,11.6439405 5.61379182,11.6439405 L6.07953903,11.6439405 L6.07953903,13.2740818 C6.07953903,13.6599405 6.39227509,13.9727286 6.77813383,13.9727286 C7.16399257,13.9727286 7.47678067,13.6598885 7.47678067,13.2740818 L7.47678067,11.6439405 L7.94257993,11.6439405 C8.45698885,11.6439405 8.87407435,11.226855 8.87407435,10.7123941 L8.87407435,9.78089963 C8.87407435,9.26643866 8.45704089,8.8494052 7.94257993,8.8494052 Z M12.6001041,1.39724164 L12.1343569,1.39724164 L12.1343569,0.69864684 C12.1344089,0.312736059 11.8215688,0 11.4357621,0 C11.0499033,0 10.7371152,0.312736059 10.7371152,0.69864684 L10.7371152,1.39724164 L10.271368,1.39724164 C9.75685502,1.39724164 9.33982156,1.81432714 9.33982156,2.3287881 L9.33982156,3.26028253 C9.33982156,3.77474349 9.75685502,4.19177695 10.271368,4.19177695 L10.7371152,4.19177695 L10.7371152,13.2740297 C10.7371152,13.6598885 11.0499033,13.9726766 11.4357621,13.9726766 C11.8215688,13.9726766 12.1344089,13.6598364 12.1344089,13.2740297 L12.1344089,4.19177695 L12.6001561,4.19177695 C13.1146171,4.19177695 13.5317026,3.77469145 13.5317026,3.26028253 L13.5317026,2.3287881 C13.5316506,1.81432714 13.1146171,1.39724164 12.6001041,1.39724164 Z" id="Shape"></path>
            </g>
        </g>
    </g>
</svg>