<?xml version="1.0" encoding="UTF-8"?>
<svg width="11px" height="14px" viewBox="0 0 11 14" version="1.1" xmlns="http://www.w3.org/2000/svg" xmlns:xlink="http://www.w3.org/1999/xlink">
    <!-- Generator: sketchtool 53.2 (72643) - https://sketchapp.com -->
    <title>EBFC90DD-537C-4F25-A612-D8132BC428F6</title>
    <desc>Created with sketchtool.</desc>
    <g id="Ui-elements" stroke="none" stroke-width="1" fill="none" fill-rule="evenodd">
        <g transform="translate(-75.000000, -642.000000)" fill="#474747" id="icon-location">
            <g transform="translate(75.000000, 642.000000)">
                <g transform="translate(-0.000000, 0.000000)" id="Shape">
                    <path d="M5.47716346,0 C2.46634315,0 0.0168731971,2.44946995 0.0168731971,5.46026082 C0.0168731971,9.19674639 4.90329808,13.6052025 5.11134195,13.8368924 C5.306753,14.0545361 5.64792728,14.0541532 5.84298498,13.8368924 C6.05102885,13.6052025 10.9374537,9.19674639 10.9374537,5.46026082 C10.9373948,2.44946995 8.48795433,0 5.47716346,0 Z M5.47716346,8.20747055 C3.96234495,8.20747055 2.72998317,6.97507933 2.72998317,5.46026082 C2.72998317,3.94544231 3.9623744,2.71308053 5.47716346,2.71308053 C6.99195252,2.71308053 8.2243143,3.94547175 8.2243143,5.46029026 C8.2243143,6.97510877 6.99195252,8.20747055 5.47716346,8.20747055 Z" fill-rule="nonzero"></path>
                </g>
            </g>
        </g>
    </g>
</svg>