<?xml version="1.0" encoding="UTF-8"?>
<svg width="15px" height="14px" viewBox="0 0 15 14" version="1.1" xmlns="http://www.w3.org/2000/svg" xmlns:xlink="http://www.w3.org/1999/xlink">
    <!-- Generator: sketchtool 53.2 (72643) - https://sketchapp.com -->
    <title>48F7D0BE-8961-423B-B850-42D4A416C117</title>
    <desc>Created with sketchtool.</desc>
    <g id="Ui-elements" stroke="none" stroke-width="1" fill="none" fill-rule="evenodd">
        <g transform="translate(-555.000000, -604.000000)" fill="#474747" id="icon-plus">
            <g transform="translate(555.000000, 604.000000)">
                <path d="M6.94444444,6 L6.94444444,1 C6.94444444,0.44771525 7.39215969,0 7.94444444,0 C8.49672919,0 8.94444444,0.44771525 8.94444444,1 L8.94444444,6 L13.9444444,6 C14.4967292,6 14.9444444,6.44771525 14.9444444,7 C14.9444444,7.55228475 14.4967292,8 13.9444444,8 L8.94444444,8 L8.94444444,13 C8.94444444,13.5522847 8.49672919,14 7.94444444,14 C7.39215969,14 6.94444444,13.5522847 6.94444444,13 L6.94444444,8 L1.94444444,8 C1.39215969,8 0.944444444,7.55228475 0.944444444,7 C0.944444444,6.44771525 1.39215969,6 1.94444444,6 L6.94444444,6 Z" id="Combined-Shape"></path>
            </g>
        </g>
    </g>
</svg>