<?xml version="1.0" encoding="UTF-8"?>
<svg width="16px" height="13px" viewBox="0 0 16 13" version="1.1" xmlns="http://www.w3.org/2000/svg" xmlns:xlink="http://www.w3.org/1999/xlink">
    <!-- Generator: sketchtool 53.2 (72643) - https://sketchapp.com -->
    <title>45510C0D-7ABC-4286-A807-BDB940DDB06A</title>
    <desc>Created with sketchtool.</desc>
    <g id="Ui-elements" stroke="none" stroke-width="1" fill="none" fill-rule="evenodd">
        <g transform="translate(-435.000000, -605.000000)" fill="#474747" id="icon-team">
            <g transform="translate(435.000000, 605.000000)">
                <g transform="translate(0.000000, -0.000000)" id="Shape">
                    <path d="M7.98288502,6.0383554 C9.38241115,6.0383554 10.4709129,4.58681533 10.4709129,3.08420906 L10.4709129,2.61346341 C10.4709129,1.11091289 9.38241115,0.0447665505 7.98288502,0.0447665505 C6.58330314,0.0447665505 5.49480139,1.11085714 5.49480139,2.61346341 L5.49480139,3.08420906 C5.49480139,4.58681533 6.58330314,6.0383554 7.98288502,6.0383554 Z M2.9981324,6.52432056 C3.39829965,6.52432056 4.49337979,6.00512892 4.49337979,4.92783275 L4.49337979,4.12956098 C4.49337979,3.05220906 3.70341463,2.53301742 2.9981324,2.53301742 C2.31626481,2.53301742 1.50294077,3.05220906 1.50294077,4.12956098 L1.50294077,4.92783275 C1.50294077,6.00512892 2.61926132,6.52432056 2.9981324,6.52432056 Z M11.9570174,8.52036237 C11.9562369,8.51255749 11.9538955,8.50514286 11.953115,8.49739373 C11.9414077,8.4034007 11.9234564,8.31147038 11.8985366,8.22143554 C11.8985366,8.2205993 11.8985366,8.21987456 11.8977561,8.21909408 C11.8455192,8.02770732 11.7573798,7.84334495 11.6257003,7.66171429 L11.6257003,7.6609338 C11.4097282,7.36200697 11.0839303,7.05711498 10.5545923,6.75980488 C10.2747317,6.60264808 10.1515261,6.53062021 9.97853659,6.53062021 C9.70335889,6.53062021 9.46324739,6.74458537 9.05873171,7.11604181 L9.05789547,7.11604181 L8.68995122,7.45432753 C8.67668293,7.46687108 8.27997213,8.02731707 7.98294077,8.02731707 C7.68590941,8.02731707 7.28914286,7.46681533 7.27587456,7.45432753 L6.90793031,7.11604181 L6.90714983,7.11604181 C6.50263415,6.74458537 6.26252265,6.53062021 5.98734495,6.53062021 C5.81429965,6.53062021 5.65987456,6.60264808 5.4112892,6.75980488 C4.89806272,7.08376307 4.55604181,7.36161672 4.34096167,7.66009756 L4.34012544,7.6604878 C4.33934495,7.66126829 4.33934495,7.66249477 4.33862021,7.66316376 C4.20839024,7.8432892 4.12108711,8.02648084 4.06890592,8.21669686 C4.06818118,8.21825784 4.0672892,8.22020906 4.06667596,8.22210453 C4.04242509,8.31147038 4.02447387,8.40217422 4.0128223,8.49533101 C4.01204181,8.50397213 4.00970035,8.5121115 4.00886411,8.52069686 C3.99793728,8.61970732 3.99174913,8.72066899 3.99174913,8.82547735 C3.99174913,8.83712892 3.99152613,11.0105645 3.99174913,11.0207108 C3.99174913,11.7300627 4.25912195,12.0185087 4.98954704,12.0185087 L10.976446,12.0185087 C11.7131707,12.0185087 11.9742439,11.7456167 11.9742439,11.0207108 C11.9744669,11.0105645 11.9741882,8.83712892 11.9741882,8.82547735 C11.9741324,8.72072474 11.9678885,8.61976307 11.9570174,8.52036237 Z M12.9763902,6.52432056 C13.3765017,6.52432056 14.4716934,6.00512892 14.4716934,4.92783275 L14.4716934,4.12956098 C14.4716934,3.05220906 13.6817282,2.53301742 12.9763902,2.53301742 C12.2944669,2.53301742 11.4811429,3.05220906 11.4811429,4.12956098 L11.4811429,4.92783275 C11.4811429,6.00512892 12.5974634,6.52432056 12.9763902,6.52432056 Z M1.13538676,7.60479443 C0.206885017,8.13335192 0.000334494774,8.97605575 0.000334494774,9.52406969 C0.000334494774,9.5325993 -0.000445993031,10.5141185 0.000334494774,10.5218676 C0.000334494774,11.2460488 0.243567944,11.5197213 0.998132404,11.5197213 L2.99378397,11.5197213 C2.99378397,11.5197213 2.99378397,9.39935889 2.99378397,8.52621603 L2.49488502,8.02731707 C1.96705226,7.56192334 1.52206272,7.38497561 1.13538676,7.60479443 Z M3.0139722,8.52621603 C3.0336722,8.53569338 3.0139722,8.28928223 3.0139722,8.52621603 L3.0139722,8.52621603 Z M15.9654913,9.52406969 C15.9654913,8.976 15.758885,8.13329617 14.830439,7.60479443 C14.4437631,7.38497561 13.9987735,7.56192334 13.4709408,8.02737282 L12.9720418,8.52627178 C12.9720418,9.39935889 12.9720418,11.519777 12.9720418,11.519777 L14.9676934,11.519777 C15.7222578,11.519777 15.9654913,11.2461045 15.9654913,10.5219233 C15.9662718,10.5141185 15.9654913,9.53265505 15.9654913,9.52406969 Z M12.9960389,8.52621603 C12.9960389,8.28928223 12.9764389,8.53569338 12.9960389,8.52621603 L12.9960389,8.52621603 Z"></path>
                </g>
            </g>
        </g>
    </g>
</svg>