<?xml version="1.0" encoding="UTF-8"?>
<svg width="10px" height="10px" viewBox="0 0 10 10" version="1.1" xmlns="http://www.w3.org/2000/svg" xmlns:xlink="http://www.w3.org/1999/xlink">
    <!-- Generator: sketchtool 53.2 (72643) - https://sketchapp.com -->
    <title>32B0D302-E4BE-4975-9599-BB92820A8303</title>
    <desc>Created with sketchtool.</desc>
    <g id="Designer-profile" stroke="none" stroke-width="1" fill="none" fill-rule="evenodd" opacity="0.800000012">
        <g id="Designer's-Topic" transform="translate(-638.000000, -585.000000)" fill="#474747">
            <g id="FAQ-card" transform="translate(391.000000, 254.000000)">
                <g id="Group-5" transform="translate(20.000000, 191.000000)">
                    <g id="faq-action" transform="translate(66.000000, 135.000000)">
                        <g id="Group-13">
                            <g transform="translate(161.000000, 0.000000)">
                                <g id="icon-star" transform="translate(0.000000, 5.000000)">
                                    <path d="M9.90822222,3.70974074 C9.83351852,3.51014815 9.65033333,3.37151852 9.43811111,3.35340741 L6.62903704,3.02011111 L5.47918519,0.371222222 C5.39196296,0.168666667 5.19296296,0.0372962963 4.97259259,0.037 L4.97177778,0.037 C4.7517037,0.037 4.55259259,0.167555556 4.46492593,0.36962963 L3.31455556,3.02011111 L0.505481481,3.35340741 C0.292703704,3.37174074 0.109481481,3.5107037 0.0350740741,3.71055556 C-0.0396296296,3.91044444 0.0072962963,4.13537037 0.155888889,4.28862963 L2.32022222,6.33462963 L1.66618519,9.32888889 C1.62762963,9.54033333 1.71533333,9.75533333 1.89114815,9.87944444 C1.98611111,9.94659259 2.09781481,9.98059259 2.20974074,9.98059259 C2.3047037,9.98059259 2.39966667,9.95633333 2.48511111,9.90696296 L4.97185185,8.32333333 L7.45855556,9.90696296 C7.54407407,9.95633333 7.63896296,9.98059259 7.73392593,9.98059259 C7.84559259,9.98059259 7.9567037,9.94688889 8.05166667,9.87996296 C8.22755556,9.75640741 8.31544444,9.54222222 8.2777037,9.33077778 L7.62344444,6.33462963 L9.78874074,4.28751852 C9.93655556,4.13437037 9.98322222,3.90940741 9.90822222,3.70974074 Z" id="Path"></path>
                                </g>
                            </g>
                        </g>
                    </g>
                </g>
            </g>
        </g>
    </g>
</svg>