<?xml version="1.0" encoding="UTF-8"?>
<svg width="6px" height="10px" viewBox="0 0 6 10" version="1.1" xmlns="http://www.w3.org/2000/svg" xmlns:xlink="http://www.w3.org/1999/xlink">
    <!-- Generator: sketchtool 53.2 (72643) - https://sketchapp.com -->
    <title>1040A8C9-20A5-48A1-B4AF-C373CAF68053</title>
    <desc>Created with sketchtool.</desc>
    <g id="Designer-profile" stroke="none" stroke-width="1" fill="none" fill-rule="evenodd">
        <g id="Designer's-Topic" transform="translate(-529.000000, -284.000000)" fill="#474747">
            <g id="FAQ-card" transform="translate(391.000000, 254.000000)">
                <g id="Group-3" transform="translate(20.000000, 22.000000)">
                    <g id="Group-11">
                        <g id="Group-9" transform="translate(96.000000, 6.000000)">
                            <g id="icon-right-arrow" transform="translate(22.000000, 2.000000)">
                                <g transform="translate(2.685185, 5.000000) scale(-1, 1) translate(-2.685185, -5.000000) translate(-0.000000, 0.000000)" id="Path">
                                    <path d="M1.61603704,5.01464286 L5.13651852,1.26333333 C5.39951852,0.983373016 5.39951852,0.52952381 5.13651852,0.249603175 C4.87355556,-0.0303174603 4.44714815,-0.0303174603 4.18414815,0.249603175 L0.221814815,4.47178571 C0.0816666667,4.62095238 0.0185925926,4.81936508 0.0278148148,5.01464286 C0.0185925926,5.20996032 0.0816666667,5.40833333 0.221814815,5.55753968 L4.18414815,9.77968254 C4.44714815,10.0596429 4.87351852,10.0596429 5.13651852,9.77968254 C5.39951852,9.4997619 5.39951852,9.0459127 5.13651852,8.76603175 L1.61603704,5.01464286 Z"></path>
                                </g>
                            </g>
                        </g>
                    </g>
                </g>
            </g>
        </g>
    </g>
</svg>