<?xml version="1.0" encoding="UTF-8"?>
<svg width="14px" height="14px" viewBox="0 0 14 14" version="1.1" xmlns="http://www.w3.org/2000/svg" xmlns:xlink="http://www.w3.org/1999/xlink">
    <!-- Generator: sketchtool 53.2 (72643) - https://sketchapp.com -->
    <title>BE809E8F-1FE6-4C26-9B2B-29883911D86D</title>
    <desc>Created with sketchtool.</desc>
    <g id="Ui-elements" stroke="none" stroke-width="1" fill="none" fill-rule="evenodd">
        <g transform="translate(-646.000000, -604.000000)" fill="#474747" id="icon-link">
            <g transform="translate(646.000000, 604.000000)">
                <path d="M13.3271673,1.62285502 L12.3512268,0.646966543 C11.3658141,-0.338394052 9.2684684,-0.173933086 8.11947955,0.975055762 L6.49100372,2.6035316 C5.71710037,3.37743494 5.39666171,4.58539033 5.56653532,5.59016357 C4.56556134,5.42242379 3.36895167,5.74593309 2.59915985,6.51572491 L0.97604461,8.13884015 C-0.169144981,9.28408178 -0.321791822,11.3858513 0.651390335,12.3590335 L1.62524907,13.3328922 C2.59843123,14.3060743 4.70025279,14.1534796 5.84544238,13.00829 L7.46855762,11.3851227 C8.23860967,10.6150706 8.55301115,9.40878067 8.38501115,8.40775465 C9.38957621,8.5772119 10.596855,8.25677323 11.3705502,7.48307807 L12.9991301,5.85460223 C14.1480669,4.70566543 14.2922305,2.58797026 13.3271673,1.62285502 Z M6.17004461,10.7359182 L5.19618587,11.709829 C4.12666914,12.7792937 3.04596283,12.8058364 2.11217844,11.8721561 C1.19307063,10.9529442 1.20504089,9.85766543 2.27450558,8.7881487 L3.24836431,7.81423792 C4.10418587,6.95841636 4.97915985,6.76007435 5.7858513,7.2244684 L4.06,8.95042379 C3.7910855,9.21933829 3.7910855,9.65536803 4.06,9.92433457 C4.32896654,10.1932491 4.76494424,10.1932491 5.03385874,9.92433457 L6.75804461,8.2001487 C7.21307063,9.00075093 7.02336803,9.8825948 6.17004461,10.7359182 Z M11.6974944,5.20440892 L10.720461,6.18154647 C9.85313755,7.04886989 8.97894424,7.23222305 8.18146468,6.77678067 L9.90237175,5.05592565 C10.1712862,4.78701115 10.1712862,4.35098141 9.90237175,4.08201487 C9.6334052,3.81310037 9.19737546,3.81310037 8.92846097,4.08201487 L7.20609665,5.80437918 C6.75034201,5.00939777 6.92318216,4.12333829 7.79274349,3.25377695 L8.769829,2.27663941 C9.82664684,1.21987361 10.911881,1.16168773 11.8622156,2.1120223 C12.7978216,3.04773234 12.7542602,4.14764312 11.6974944,5.20440892 Z" id="Shape"></path>
            </g>
        </g>
    </g>
</svg>