<?xml version="1.0" encoding="UTF-8"?>
<svg width="20px" height="14px" viewBox="0 0 20 14" version="1.1" xmlns="http://www.w3.org/2000/svg" xmlns:xlink="http://www.w3.org/1999/xlink">
    <!-- Generator: sketchtool 53.2 (72643) - https://sketchapp.com -->
    <title>7A3F13FA-0B6F-49FA-BA00-F30CC3333DFF</title>
    <desc>Created with sketchtool.</desc>
    <g id="Ui-elements" stroke="none" stroke-width="1" fill="none" fill-rule="evenodd">
        <g transform="translate(-736.000000, -604.000000)" fill="#474747" id="icon-view">
            <g transform="translate(736.000000, 604.000000)">
                <g id="Shape">
                    <path d="M9.79656442,0.0332106339 C6.05308844,0.0332106339 2.65830883,2.37398773 0.153306163,6.17603272 C-0.0511020543,6.48752556 -0.0511020543,6.92269939 0.153306163,7.23419223 C2.65830883,11.040818 6.05308844,13.3815951 9.79656442,13.3815951 C13.5400404,13.3815951 16.93482,11.040818 19.4398227,7.23877301 C19.6442309,6.92728016 19.6442309,6.49210634 19.4398227,6.1806135 C16.93482,2.37398773 13.5400404,0.0332106339 9.79656442,0.0332106339 Z M10.1034765,11.4072802 C7.26339468,11.5859305 4.91803681,9.24515337 5.09668712,6.4004908 C5.24327198,4.05513292 7.14429448,2.15411043 9.48965235,2.00752556 C12.3297342,1.82887526 14.675092,4.16965235 14.4964417,7.01431493 C14.3452761,9.35509202 12.4442536,11.2561145 10.1034765,11.4072802 Z M9.96147239,9.23599182 C8.43149284,9.33218814 7.16719836,8.07247444 7.26797546,6.54249489 C7.34584867,5.27820041 8.37194274,4.25668712 9.63623722,4.17423313 C11.1662168,4.07803681 12.4305112,5.33775051 12.3297342,6.86773006 C12.2472802,8.13660532 11.2211861,9.15811861 9.96147239,9.23599182 Z" fill-rule="nonzero"></path>
                </g>
            </g>
        </g>
    </g>
</svg>