<?xml version="1.0" encoding="UTF-8"?>
<svg width="15px" height="14px" viewBox="0 0 15 14" version="1.1" xmlns="http://www.w3.org/2000/svg" xmlns:xlink="http://www.w3.org/1999/xlink">
    <!-- Generator: sketchtool 53.2 (72643) - https://sketchapp.com -->
    <title>1943BC46-7F8D-4FB8-9DD2-192BFD76EC04</title>
    <desc>Created with sketchtool.</desc>
    <g id="Ui-elements" stroke="none" stroke-width="1" fill="none" fill-rule="evenodd">
        <g transform="translate(-194.000000, -642.000000)" fill="#474747" id="icon-globe">
            <g transform="translate(194.000000, 642.000000)">
                <g id="Shape">
                    <path d="M7.4481,0 C3.3414,0 0,3.11836 0,6.95128 C0,8.52292 0.5484,10.0058 1.5855,11.23892 C3.0084,12.93152 5.1453,13.90312 7.4481,13.90312 C9.7509,13.90312 11.8878,12.93152 13.311,11.23836 C14.3478,10.00524 14.8959,8.52236 14.8959,6.951 C14.8959,3.11836 11.5548,0 7.4481,0 Z M10.3056,6.5436 C10.2732,5.8688 10.1637,5.2332 10.0044,4.64408 C10.9242,4.43576 11.7147,4.13728 12.3618,3.82872 C12.936,4.61328 13.2951,5.54232 13.3737,6.5436 L10.3056,6.5436 L10.3056,6.5436 Z M7.3971,12.50172 C7.3761,12.50144 7.3554,12.50004 7.3347,12.49948 C6.9498,12.0358 6.3429,11.18152 5.9001,9.9974 C6.3834,9.92628 6.8991,9.88232 7.4484,9.88232 C7.9326,9.88232 8.3916,9.9162 8.826,9.97248 C8.3748,11.12748 7.7727,12.01368 7.3971,12.50172 Z M7.4481,9.04288 C6.8031,9.04288 6.2028,9.1 5.6415,9.18876 C5.4951,8.63996 5.3916,8.0374 5.3595,7.38332 L9.408,7.38332 C9.3717,8.01388 9.2586,8.60972 9.1005,9.16132 C8.5827,9.08712 8.0316,9.04288 7.4481,9.04288 Z M1.5225,6.5436 C1.6011,5.54232 1.9602,4.61328 2.5344,3.82872 C3.1446,4.11964 3.8856,4.40216 4.7424,4.60852 C4.5927,5.1982 4.4922,5.84444 4.4628,6.54388 L1.5225,6.5436 L1.5225,6.5436 Z M5.3589,6.5436 C5.3886,5.90884 5.4858,5.32196 5.625,4.78492 C6.192,4.8748 6.8001,4.928 7.4478,4.928 C8.0391,4.928 8.5956,4.88264 9.1194,4.80676 C9.2694,5.3466 9.3753,5.92816 9.4086,6.54332 L5.3589,6.5436 L5.3589,6.5436 Z M7.3992,1.40224 C7.782,1.89868 8.3994,2.80812 8.8527,3.99448 C8.4096,4.053 7.9422,4.088 7.4478,4.088 C6.8919,4.088 6.3687,4.04488 5.8779,3.97208 C6.3225,2.75744 6.9435,1.87964 7.3347,1.40532 C7.3563,1.40504 7.3773,1.40252 7.3992,1.40224 Z M11.7804,3.16008 C11.2116,3.41852 10.533,3.66296 9.7524,3.83628 C9.402,2.87672 8.9478,2.08236 8.5569,1.50024 C9.8175,1.7234 10.9359,2.31952 11.7804,3.16008 Z M6.1269,1.5428 C5.7417,2.10308 5.3136,2.86104 4.9842,3.7996 C4.2696,3.62908 3.6444,3.40032 3.1152,3.16008 C3.9126,2.36712 4.9527,1.79256 6.1269,1.5428 Z M1.5189,7.3836 L4.4631,7.3836 C4.4952,8.10096 4.6026,8.7626 4.7601,9.36404 C3.888,9.57292 3.1524,9.85292 2.5734,10.12648 C1.9611,9.31084 1.5999,8.37564 1.5189,7.3836 Z M3.1557,10.7926 C3.6612,10.56636 4.2867,10.34292 5.0073,10.17156 C5.3346,11.08268 5.7543,11.8188 6.1314,12.36648 C4.9992,12.12904 3.9684,11.58612 3.1557,10.7926 Z M8.5548,12.40596 C8.9376,11.837 9.3819,11.06336 9.7296,10.12984 C10.506,10.30064 11.1792,10.54228 11.7399,10.79316 C10.8774,11.63484 9.7689,12.19372 8.5548,12.40596 Z M12.3237,10.1248 C11.6871,9.82464 10.9041,9.52952 9.9873,9.32372 C10.1541,8.7234 10.2687,8.07408 10.3047,7.3836 L13.377,7.3836 C13.2963,8.3748 12.9354,9.30972 12.3237,10.1248 Z" fill-rule="nonzero"></path>
                </g>
            </g>
        </g>
    </g>
</svg>