<?xml version="1.0" encoding="UTF-8"?>
<svg width="15px" height="12px" viewBox="0 0 15 12" version="1.1" xmlns="http://www.w3.org/2000/svg" xmlns:xlink="http://www.w3.org/1999/xlink">
    <!-- Generator: sketchtool 53.2 (72643) - https://sketchapp.com -->
    <title>8D347F1E-2ABC-4E64-81CB-BC218EC49D6D</title>
    <desc>Created with sketchtool.</desc>
    <g id="Ui-elements" stroke="none" stroke-width="1" fill="none" fill-rule="evenodd">
        <g transform="translate(-612.000000, -643.000000)" fill="#474747" id="icon-mail">
            <g transform="translate(612.000000, 643.000000)">
                <g transform="translate(0.719445, 0.000000)" id="Path">
                    <path d="M1.34274219,3.41055859 C1.51971094,3.5354375 2.05316016,3.90632813 2.94311719,4.52303906 C3.83310156,5.13975 4.51489062,5.61460156 4.98851172,5.94762109 C5.04054688,5.984125 5.15109766,6.06347656 5.32021875,6.18578516 C5.48936719,6.30817578 5.62991406,6.40707813 5.74175,6.48251953 C5.85366797,6.55793359 5.98896484,6.64253516 6.14777734,6.7361875 C6.30653516,6.82975781 6.4561875,6.90014062 6.59670703,6.94673438 C6.73725391,6.99371094 6.86735547,7.01698047 6.98703906,7.01698047 L6.99488672,7.01698047 L7.00276172,7.01698047 C7.12244531,7.01698047 7.25260156,6.99368359 7.39314844,6.94673438 C7.53361328,6.90014062 7.68340234,6.82967578 7.84202344,6.7361875 C8.00072656,6.64242578 8.13602344,6.55790625 8.24794141,6.48251953 C8.35985938,6.40707813 8.50029688,6.30817578 8.6695,6.18578516 C8.83859375,6.06336719 8.94928125,5.984125 9.00131641,5.94762109 C9.48005078,5.61460156 10.6980234,4.76883203 12.6548516,3.41039453 C13.0347656,3.14507813 13.3521719,2.8249375 13.6071523,2.45019141 C13.8623242,2.07560938 13.9897734,1.68265234 13.9897734,1.27153906 C13.9897734,0.927992188 13.8660977,0.633910156 13.6188555,0.389320313 C13.3716406,0.144675781 13.0788437,0.022421875 12.7406562,0.022421875 L1.24903516,0.022421875 C0.8483125,0.022421875 0.539929688,0.15771875 0.323941406,0.4283125 C0.107980469,0.698960938 0,1.03725781 0,1.44317578 C0,1.77105469 0.143171875,2.12635938 0.429378906,2.50887109 C0.715558594,2.89141016 1.02011328,3.192 1.34274219,3.41055859 Z"></path>
                    <path d="M13.209,4.24580078 C11.5020938,5.40110156 10.206,6.29896094 9.32134766,6.9391875 C9.02469531,7.15769141 8.78404297,7.32826172 8.59922656,7.45048828 C8.41441016,7.57279688 8.16861719,7.69770313 7.86149219,7.82515234 C7.55447656,7.95279297 7.26835156,8.01642188 7.00287109,8.01642188 L6.99491406,8.01642188 L6.98706641,8.01642188 C6.72164062,8.01642188 6.43535156,7.95279297 6.12833594,7.82515234 C5.82132031,7.69770313 5.57536328,7.57279688 5.39060156,7.45048828 C5.20589453,7.32826172 4.96516016,7.15769141 4.66853516,6.9391875 C3.96588281,6.42397656 2.67257812,5.5260625 0.788566406,4.24580078 C0.491832031,4.04816016 0.229003906,3.82161719 0,3.56663672 L0,9.76505469 C0,10.1087656 0.122253906,10.4026836 0.366898437,10.6473008 C0.611488281,10.892 0.905597656,11.0143086 1.24911719,11.0143086 L12.7407656,11.0143086 C13.0842031,11.0143086 13.3782852,10.892 13.6229023,10.6473008 C13.8676016,10.4026016 13.9898008,10.108793 13.9898008,9.76505469 L13.9898008,3.56663672 C13.7659648,3.81633984 13.5058164,4.04288281 13.209,4.24580078 Z"></path>
                </g>
            </g>
        </g>
    </g>
</svg>