<?xml version="1.0" encoding="UTF-8"?>
<svg width="15px" height="14px" viewBox="0 0 15 14" version="1.1" xmlns="http://www.w3.org/2000/svg" xmlns:xlink="http://www.w3.org/1999/xlink">
    <!-- Generator: sketchtool 53.2 (72643) - https://sketchapp.com -->
    <title>42D09FB7-9D29-4031-814F-1C0FEEE3C626</title>
    <desc>Created with sketchtool.</desc>
    <g id="Ui-elements" stroke="none" stroke-width="1" fill="none" fill-rule="evenodd">
        <g transform="translate(-493.000000, -642.000000)" fill="#474747" fill-rule="nonzero" id="icon-photo">
            <g transform="translate(493.690352, 642.000000)">
                <path d="M12.3598696,0 L1.6316087,0 C0.733782609,0 0,0.698173913 0,1.59630435 L0,12.3239565 C0,13.2233043 0.733782609,14 1.6316087,14 L12.3598696,14 C13.258,14 14,13.2233043 14,12.3239565 L14,1.59630435 C14,0.698173913 13.258,0 12.3598696,0 Z M8.45204348,2.23665217 C9.61343478,2.23665217 10.5556957,3.1786087 10.5556957,4.34030435 C10.5556957,5.502 9.61343478,6.44365217 8.45204348,6.44365217 C7.29034783,6.44365217 6.34808696,5.502 6.34808696,4.34030435 C6.3483913,3.1786087 7.29004348,2.23665217 8.45204348,2.23665217 Z M12.138913,11.3625217 C12.0497391,11.5277826 11.8771739,11.5652174 11.6896957,11.5652174 L2.49778261,11.5652174 C2.33617391,11.5652174 2.184,11.5539565 2.08752174,11.4243043 C1.99104348,11.2940435 1.96182609,11.1592174 2.00869565,11.004 L3.32378261,6.66978261 C3.41052174,6.38369565 3.65217391,6.17978261 3.9473913,6.13078261 C4.2426087,6.08269565 4.53965217,6.21113043 4.71313043,6.45430435 L6.55169565,9.03913043 C6.79882609,9.38730435 7.27817391,9.47404348 7.63091304,9.23452174 L9.32369565,8.085 C9.49778261,7.9666087 9.71204348,7.92430435 9.91808696,7.9653913 C10.1250435,8.00647826 10.3055217,8.12943478 10.4208696,8.30565217 L12.117913,10.8728261 C12.2201739,11.0301739 12.2286957,11.1978696 12.138913,11.3625217 Z" id="Shape"></path>
            </g>
        </g>
    </g>
</svg>