<?xml version="1.0" encoding="UTF-8"?>
<svg width="15px" height="14px" viewBox="0 0 15 14" version="1.1" xmlns="http://www.w3.org/2000/svg" xmlns:xlink="http://www.w3.org/1999/xlink">
    <!-- Generator: sketchtool 53.2 (72643) - https://sketchapp.com -->
    <title>4E71BC50-2423-4F85-8113-1A75D0F699B5</title>
    <desc>Created with sketchtool.</desc>
    <g id="Ui-elements" stroke="none" stroke-width="1" fill="none" fill-rule="evenodd">
        <g transform="translate(-582.000000, -642.000000)" fill="#474747" id="icon-expand">
            <g transform="translate(582.184394, 642.000000)">
                <path d="M2.71833333,1.57992593 L3.6482963,1.57992593 C4.07788889,1.57992593 4.42607407,1.23174074 4.42607407,0.802148148 C4.42607407,0.372555556 4.07788889,0.0243703704 3.6482963,0.0243703704 L0.840518519,0.0243703704 C0.838185185,0.0243703704 0.835851852,0.0248888889 0.833518519,0.0251481481 C0.784777778,0.0254074074 0.736296296,0.0303333333 0.688333333,0.0396666667 C0.665,0.0443333333 0.643222222,0.0531481481 0.620407407,0.0598888889 C0.594481481,0.0674074074 0.568037037,0.0736296296 0.542888889,0.084 C0.516962963,0.0948888889 0.49337037,0.109407407 0.469,0.122888889 C0.449037037,0.133777778 0.428296296,0.142592593 0.409111111,0.155555556 C0.367111111,0.183555556 0.328222222,0.215185185 0.292703704,0.250703704 C0.292185185,0.251481481 0.291148148,0.251740741 0.29062963,0.252518519 C0.289074074,0.254074074 0.288296296,0.255888889 0.286740741,0.257444444 C0.277925926,0.266518519 0.270925926,0.277407407 0.26237037,0.287 C0.102666667,0.429592593 0.000259259259,0.634666667 0.000259259259,0.865407407 L0.000259259259,3.67318519 C0.000259259259,4.10277778 0.348444444,4.45096296 0.778037037,4.45096296 C1.20762963,4.45096296 1.55581481,4.10277778 1.55581481,3.67318519 L1.55581481,2.61748148 L4.18055556,5.2417037 C4.33222222,5.39337037 4.53159259,5.46933333 4.73044444,5.46933333 C4.9292963,5.46933333 5.12866667,5.39337037 5.28059259,5.24144444 C5.58418519,4.93785185 5.58418519,4.44525926 5.28059259,4.14140741 L2.71833333,1.57992593 Z" id="Path"></path>
                <path d="M4.18055556,8.5877037 L1.55555556,11.2127037 L1.55555556,10.157 C1.55555556,9.72740741 1.20737037,9.37922222 0.777777778,9.37922222 C0.348185185,9.37922222 0,9.72740741 0,10.157 L0,12.9647778 C0,13.1957778 0.102666667,13.4008519 0.262111111,13.5429259 C0.306185185,13.5921852 0.354148148,13.6375556 0.40937037,13.6743704 C0.427777778,13.6868148 0.447740741,13.6951111 0.466925926,13.7057407 C0.492074074,13.7197407 0.516444444,13.7345185 0.543148148,13.7456667 C0.568555556,13.7562963 0.594740741,13.762 0.620925926,13.770037 C0.643481481,13.7765185 0.665,13.7853333 0.688333333,13.7897407 C0.73862963,13.7998519 0.789703704,13.8052963 0.840518519,13.8052963 L3.6482963,13.8052963 C4.07788889,13.8052963 4.42607407,13.4571111 4.42607407,13.0275185 C4.42607407,12.5979259 4.07788889,12.2497407 3.6482963,12.2497407 L2.71807407,12.2497407 L5.28033333,9.68748148 C5.58418519,9.38388889 5.58418519,8.8912963 5.28033333,8.5877037 C4.97674074,8.28385185 4.48414815,8.28385185 4.18055556,8.5877037 Z" id="Path"></path>
                <path d="M13.5701481,9.37922222 C13.1405556,9.37922222 12.7923704,9.72740741 12.7923704,10.157 L12.7923704,11.2127037 L10.1673704,8.5877037 C9.86351852,8.28385185 9.37144444,8.28385185 9.06759259,8.5877037 C8.76374074,8.8912963 8.76374074,9.38388889 9.06759259,9.68748148 L11.6298519,12.2497407 L10.6996296,12.2497407 C10.270037,12.2497407 9.92185185,12.5979259 9.92185185,13.0275185 C9.92185185,13.4571111 10.270037,13.8052963 10.6996296,13.8052963 L13.5074074,13.8052963 C13.5582222,13.8052963 13.6095556,13.7998519 13.6595926,13.7897407 C13.6837037,13.7850741 13.7057407,13.7762593 13.7290741,13.7692593 C13.7544815,13.7617407 13.7801481,13.756037 13.8047778,13.7459259 C13.8325185,13.7342593 13.8581852,13.7187037 13.8846296,13.7039259 C13.9025185,13.6938148 13.9214444,13.6862963 13.9385556,13.6746296 C13.9937778,13.6375556 14.042,13.5927037 14.0860741,13.5429259 C14.2455185,13.4005926 14.3481852,13.1955185 14.3481852,12.9647778 L14.3481852,10.157 C14.3479259,9.72740741 13.9997407,9.37922222 13.5701481,9.37922222 Z" id="Path"></path>
                <path d="M9.58611111,5.47011111 C9.78522222,5.47011111 9.98407407,5.39414815 10.136,5.24222222 L12.761,2.61722222 L12.761,3.67292593 C12.761,4.10251852 13.1091852,4.4507037 13.5387778,4.4507037 C13.9683704,4.4507037 14.3165556,4.10251852 14.3165556,3.67292593 L14.3165556,0.864888889 C14.3165556,0.634148148 14.2138889,0.428814815 14.0541852,0.286481481 C14.0103704,0.237222222 13.9621481,0.191851852 13.9071852,0.155037037 C13.8892963,0.143111111 13.8698519,0.135074074 13.8514444,0.124703704 C13.8255185,0.110444444 13.8008889,0.0948888889 13.7731481,0.0834814815 C13.748,0.0731111111 13.7220741,0.0671481481 13.6961481,0.0596296296 C13.6735926,0.0528888889 13.6518148,0.0440740741 13.627963,0.0394074074 C13.5779259,0.0292962963 13.5268519,0.0241111111 13.4757778,0.0241111111 L10.668,0.0241111111 C10.2384074,0.0241111111 9.89022222,0.372296296 9.89022222,0.801888889 C9.89022222,1.23148148 10.2384074,1.57966667 10.668,1.57966667 L11.5982222,1.57966667 L9.03596296,4.14192593 C8.73211111,4.44551852 8.73211111,4.93811111 9.03596296,5.2417037 C9.18814815,5.39388889 9.387,5.47011111 9.58611111,5.47011111 Z" id="Path"></path>
            </g>
        </g>
    </g>
</svg>