<?xml version="1.0" encoding="UTF-8"?>
<svg width="13px" height="14px" viewBox="0 0 13 14" version="1.1" xmlns="http://www.w3.org/2000/svg" xmlns:xlink="http://www.w3.org/1999/xlink">
    <!-- Generator: sketchtool 53.2 (72643) - https://sketchapp.com -->
    <title>5B87EC73-15E8-42C6-8313-07C61C63F0FF</title>
    <desc>Created with sketchtool.</desc>
    <g id="Designer-profile" stroke="none" stroke-width="1" fill="none" fill-rule="evenodd" opacity="0.400000006">
        <g id="Designer's-Topic" transform="translate(-1002.000000, -284.000000)" fill="#474747" fill-rule="nonzero">
            <g id="FAQ-card" transform="translate(391.000000, 254.000000)">
                <g id="Group-3" transform="translate(20.000000, 22.000000)">
                    <g transform="translate(591.000000, 8.000000)" id="icon-bookmark">
                        <g>
                            <path d="M10.5600444,13.7921778 C10.2865778,13.7921778 10.0131111,13.7277778 9.76826667,13.6061333 L6.27386667,11.872 L2.77915556,13.6061333 C2.2372,13.8746222 1.56333333,13.8435111 1.04906667,13.524 C0.522044444,13.1979556 0.2072,12.6320444 0.2072,12.0116889 L0.2072,1.78048889 C0.2072,0.798622222 1.00582222,0 1.98768889,0 L10.5600444,0 C11.5419111,0 12.3405333,0.798622222 12.3405333,1.78048889 L12.3405333,12.0116889 C12.3405333,12.6326667 12.0256889,13.1979556 11.4980444,13.5246222 C11.2171111,13.6994667 10.892,13.7921778 10.5600444,13.7921778 Z" id="Shape"></path>
                        </g>
                    </g>
                </g>
            </g>
        </g>
    </g>
</svg>