<?xml version="1.0" encoding="UTF-8"?>
<svg width="15px" height="14px" viewBox="0 0 15 14" version="1.1" xmlns="http://www.w3.org/2000/svg" xmlns:xlink="http://www.w3.org/1999/xlink">
    <!-- Generator: sketchtool 53.2 (72643) - https://sketchapp.com -->
    <title>E4AD6C00-08DF-4BF1-B3A0-370F929046C8</title>
    <desc>Created with sketchtool.</desc>
    <g id="Ui-elements" stroke="none" stroke-width="1" fill="none" fill-rule="evenodd">
        <g transform="translate(-766.000000, -604.000000)" fill="#474747" id="icon-home">
            <g transform="translate(766.000000, 604.000000)">
                <g transform="translate(-0.000000, 0.000000)" id="Path">
                    <path d="M14.4418607,6.22211066 L7.85159016,0.217086066 C7.56232377,-0.0465327869 7.12611475,-0.0465040984 6.83696311,0.217057377 L0.246663934,6.22213934 C0.0149467213,6.43328689 -0.0615942623,6.75861475 0.0516106557,7.05092213 C0.164844262,7.34322951 0.440540984,7.53208607 0.754020492,7.53208607 L1.80660246,7.53208607 L1.80660246,13.5486721 C1.80660246,13.7872172 2.00002049,13.9806352 2.23856557,13.9806352 L5.85085246,13.9806352 C6.08939754,13.9806352 6.28281557,13.7872459 6.28281557,13.5486721 L6.28281557,9.89559016 L8.40582377,9.89559016 L8.40582377,13.5487008 C8.40582377,13.7872459 8.5992418,13.9806639 8.83778689,13.9806639 L12.4499016,13.9806639 C12.6884467,13.9806639 12.8818648,13.7872746 12.8818648,13.5487008 L12.8818648,7.53208607 L13.9346475,7.53208607 C14.2480984,7.53208607 14.5238238,7.34320082 14.6370574,7.05092213 C14.7501189,6.75858607 14.6735779,6.43328689 14.4418607,6.22211066 Z"></path>
                    <path d="M12.7690328,0.881598361 L9.86807787,0.881598361 L13.2009959,3.91213934 L13.2009959,1.31353279 C13.2009959,1.0749877 13.0076066,0.881598361 12.7690328,0.881598361 Z"></path>
                </g>
            </g>
        </g>
    </g>
</svg>