<?xml version="1.0" encoding="UTF-8"?>
<svg width="15px" height="14px" viewBox="0 0 15 14" version="1.1" xmlns="http://www.w3.org/2000/svg" xmlns:xlink="http://www.w3.org/1999/xlink">
    <!-- Generator: sketchtool 53.2 (72643) - https://sketchapp.com -->
    <title>2D9C8881-0558-4936-8858-A0840A42628B</title>
    <desc>Created with sketchtool.</desc>
    <g id="Ui-elements" stroke="none" stroke-width="1" fill="none" fill-rule="evenodd">
        <g transform="translate(-311.000000, -642.000000)" fill="#474747" id="icon-gallery">
            <g transform="translate(311.000000, 642.000000)">
                <g transform="translate(0.444098, 0.000000)">
                    <path d="M2.15204348,9.38426087 L2.15204348,3.36669565 L1.23017391,3.36669565 C0.54873913,3.36669565 0,3.92395652 0,4.60478261 L0,12.7406087 C0,13.4223478 0.54873913,13.9735217 1.23017391,13.9735217 L9.36630435,13.9735217 C10.0474348,13.9735217 10.6068261,13.4223478 10.6068261,12.7406087 L10.6068261,11.851913 L4.61969565,11.851913 C3.26656522,11.8522174 2.15204348,10.7376957 2.15204348,9.38426087 Z" id="Path"></path>
                    <path d="M12.7561304,0.0152173913 L4.61969565,0.0152173913 C3.93856522,0.0152173913 3.38221739,0.567 3.38221739,1.24813043 L3.38221739,9.38426087 C3.38221739,10.0663043 3.93886957,10.6220435 4.61969565,10.6220435 L12.7561304,10.6220435 C13.4369565,10.6220435 13.9890435,10.0663043 13.9890435,9.38426087 L13.9890435,1.24843478 C13.9890435,0.566695652 13.4369565,0.0152173913 12.7561304,0.0152173913 Z M12.5887391,8.701 C12.5208696,8.8263913 12.3903043,8.90065217 12.2478696,8.90065217 L5.27617391,8.90065217 C5.15352174,8.90065217 5.03817391,8.84586957 4.96513043,8.74786957 C4.89208696,8.64926087 4.86986957,8.52386957 4.90517391,8.40608696 L5.90252174,5.10726087 C5.96826087,4.89026087 6.15147826,4.72986957 6.37547826,4.69304348 C6.59947826,4.65652174 6.82469565,4.75086957 6.95617391,4.9356087 L8.35069565,6.89469565 C8.53847826,7.15856522 8.90217391,7.224 9.16908696,7.042 L10.4531304,6.17004348 C10.5852174,6.08026087 10.7474348,6.04769565 10.9035652,6.07904348 C11.0603043,6.11008696 11.1975652,6.20321739 11.284913,6.33713043 L12.572,8.30686957 C12.649913,8.42647826 12.6563043,8.57621739 12.5887391,8.701 Z" id="Shape" fill-rule="nonzero"></path>
                </g>
            </g>
        </g>
    </g>
</svg>