<?xml version="1.0" encoding="UTF-8"?>
<svg width="12px" height="14px" viewBox="0 0 12 14" version="1.1" xmlns="http://www.w3.org/2000/svg" xmlns:xlink="http://www.w3.org/1999/xlink">
    <!-- Generator: sketchtool 53.2 (72643) - https://sketchapp.com -->
    <title>9FE58DCE-2485-4C4D-A5C3-EF883B044FC4</title>
    <desc>Created with sketchtool.</desc>
    <g id="Ui-elements" stroke="none" stroke-width="1" fill="none" fill-rule="evenodd">
        <g transform="translate(-618.000000, -604.000000)" fill="#474747" id="icon-attach">
            <g transform="translate(623.928739, 611.176378) rotate(44.000000) translate(-623.928739, -611.176378) translate(619.928739, 604.176378)">
                <path d="M7.47258176,8.40002086 L7.47258176,4.20001043 C7.47258176,1.76639998 5.90256432,-2.84217094e-14 3.73922756,-2.84217094e-14 C1.5759951,-2.84217094e-14 0.00587337183,1.76639998 0.00587337183,4.20001043 L0.00660341846,10.2736334 L0.00660341846,10.5069876 C0.00660341846,10.8935473 0.319949863,11.206998 0.706561702,11.206998 C1.09312139,11.206998 1.40657213,10.8935473 1.40657213,10.5069876 L1.40657213,4.20699802 C1.40657213,2.85823686 2.10684329,1.40002086 3.73917542,1.40002086 C5.37150754,1.40002086 6.0732388,2.85823686 6.0732388,4.20699802 L6.0732388,9.80702931 C6.0732388,9.85860189 6.08022639,9.9084015 6.09180284,9.95658457 L6.0732388,11.206998 C6.0732388,11.9791266 5.44263494,12.6000313 4.66977629,12.6000313 C3.89691764,12.6000313 3.26845178,11.972139 3.26845178,11.2000104 L3.26845178,8.40002086 L3.27324923,5.60701888 C3.27324923,5.4138694 3.40246748,5.14036264 3.73995761,5.14036264 C4.04819373,5.14036264 4.2065617,5.40469167 4.2065617,5.60701888 L4.2065617,7.00698759 C4.2065617,7.07164886 4.20880399,7.13046976 4.21198491,7.18668335 C4.21057696,7.20467379 4.2065617,7.22193418 4.2065617,7.24028963 L4.2065617,8.17360211 C4.2065617,8.56021395 4.52001244,8.87361254 4.90657213,8.87361254 C5.29318397,8.87361254 5.60658256,8.56021395 5.60658256,8.17360211 L5.60658256,7.24028963 C5.60658256,7.2181275 5.60209799,7.19726903 5.60006429,7.17562836 C5.60397525,7.12264783 5.60658256,7.06732073 5.60658256,7.00698759 L5.60658256,5.60701888 C5.60658256,4.59616502 4.7701577,3.74034178 3.73995761,3.74034178 C2.70965323,3.74034178 1.87328051,4.55465665 1.87328051,5.60701888 L1.87182042,6.25264083 C1.87072535,6.26859757 1.86702297,6.28382425 1.86702297,6.30004172 L1.86702297,11.2000104 C1.86702297,12.7439548 3.12431971,14 4.66977629,14 C6.21523287,14 7.47325966,12.7509424 7.47325966,11.206998 L7.47258176,8.40002086 Z" id="Path"></path>
            </g>
        </g>
    </g>
</svg>