<?xml version="1.0" encoding="UTF-8"?>
<svg width="14px" height="14px" viewBox="0 0 14 14" version="1.1" xmlns="http://www.w3.org/2000/svg" xmlns:xlink="http://www.w3.org/1999/xlink">
    <!-- Generator: sketchtool 53.2 (72643) - https://sketchapp.com -->
    <title>1D99FD32-C71D-421A-ADEE-A531DBED849C</title>
    <desc>Created with sketchtool.</desc>
    <g id="Ui-elements" stroke="none" stroke-width="1" fill="none" fill-rule="evenodd">
        <g transform="translate(-105.000000, -604.000000)" fill="#474747" id="icon-save">
            <g transform="translate(105.000000, 604.000000)">
                <path d="M6.75789256,4.6595124 L10.3819256,4.6595124 L10.3819256,2.07090083 L6.75789256,2.07090083 L6.75789256,4.6595124 Z M3.13380165,13.9785372 L10.3819256,13.9785372 L10.3819256,7.76589256 L3.13380165,7.76589256 L3.13380165,13.9785372 Z M13.4882479,4.27104132 L13.4882479,0 L13.4882479,2.32978512 L11.2447769,0 L1.52310744,0 L1.52310744,0.00133057851 C1.40555372,0.000520661157 1.28163636,5.78512397e-05 1.14915702,5.78512397e-05 C0.52968595,5.78512397e-05 0.0274214876,0.521586777 0.0274214876,1.16495041 L0.0274214876,12.8137025 C0.0274214876,13.4570083 0.52968595,13.9785372 1.14915702,13.9785372 C1.29424793,13.9785372 1.41781818,13.9769174 1.52310744,13.9722893 L1.52310744,13.9784793 L2.09838017,13.9784793 L2.09838017,13.7010826 C2.12938843,13.5467934 2.09838017,13.309719 2.09838017,12.9430579 L2.09838017,7.76583471 C2.09838017,6.96482645 2.38104132,6.73041322 3.13380165,6.73041322 L10.3819256,6.73041322 C11.1508843,6.73041322 11.4173471,6.99722314 11.4173471,7.76583471 L11.4173471,13.9784793 L11.9926198,13.9784793 L11.9926198,13.971595 C12.0989504,13.9787107 12.222405,13.9784793 12.3664545,13.9784793 C12.9860413,13.9784793 13.4882479,13.4568926 13.4882479,12.8136446 L13.4882479,4.27121488 C13.4882479,4.27115702 13.4882479,4.27109917 13.4882479,4.27104132 Z M11.417405,4.14180165 C11.417405,4.92661157 11.1509421,5.17722314 10.3819835,5.17722314 L3.6515124,5.17722314 C2.88261157,5.17722314 2.61614876,4.89427273 2.61614876,4.14180165 L2.61614876,2.58866942 C2.61614876,1.80380165 2.88255372,1.55324793 3.6515124,1.55324793 L10.3819256,1.55324793 C11.1670826,1.55324793 11.4173471,1.8038595 11.4173471,2.58866942 L11.4173471,4.14180165 L11.417405,4.14180165 Z" id="Shape"></path>
            </g>
        </g>
    </g>
</svg>