<?xml version="1.0" encoding="UTF-8"?>
<svg width="14px" height="14px" viewBox="0 0 14 14" version="1.1" xmlns="http://www.w3.org/2000/svg" xmlns:xlink="http://www.w3.org/1999/xlink">
    <!-- Generator: sketchtool 53.2 (72643) - https://sketchapp.com -->
    <title>BFB6D7BF-58D5-430E-8394-52C1FFEF24E9</title>
    <desc>Created with sketchtool.</desc>
    <g id="Ui-elements" stroke="none" stroke-width="1" fill="none" fill-rule="evenodd">
        <g transform="translate(-375.000000, -604.000000)" fill="#474747" id="icon-share">
            <g transform="translate(375.000000, 604.000000)">
                <g transform="translate(0.000000, 0.000000)" id="Path">
                    <path d="M10.4115308,8.67380769 C9.79283846,8.67380769 9.22503077,8.88757692 8.77401538,9.24296154 L5.34019231,7.21603077 C5.34665385,7.14048462 5.35176923,7.06450769 5.35176923,6.98729231 C5.35176923,6.91007692 5.34670769,6.8341 5.34019231,6.75855385 L8.77401538,4.73156923 C9.22503077,5.08695385 9.79283846,5.30066923 10.4115308,5.30066923 C11.8750692,5.30066923 13.0618385,4.11411538 13.0618385,2.65030769 C13.0618385,1.18655385 11.8750692,2.84217094e-14 10.4115308,2.84217094e-14 C8.94804615,2.84217094e-14 7.76122308,1.18655385 7.76122308,2.65030769 C7.76122308,2.76456923 7.77086154,2.87635385 7.78491538,2.98679231 L4.30823077,4.88303846 C3.86216923,4.54186923 3.30636923,4.33693077 2.70151538,4.33693077 C1.23797692,4.33693077 0.0511,5.52348462 0.0511,6.98729231 C0.0511,8.45104615 1.23797692,9.6376 2.70151538,9.6376 C3.30631538,9.6376 3.86216923,9.43266154 4.30823077,9.09149231 L7.78496923,10.9877385 C7.77091538,11.0981769 7.76127692,11.2099077 7.76127692,11.3241692 C7.76127692,12.7879231 8.9481,13.9744769 10.4115846,13.9744769 C11.8751231,13.9744769 13.0618923,12.7878692 13.0618923,11.3241692 C13.0618923,9.86046923 11.8750692,8.67380769 10.4115308,8.67380769 Z"></path>
                </g>
            </g>
        </g>
    </g>
</svg>