<?xml version="1.0" encoding="UTF-8"?>
<svg width="17px" height="16px" viewBox="0 0 17 16" version="1.1" xmlns="http://www.w3.org/2000/svg" xmlns:xlink="http://www.w3.org/1999/xlink">
    <!-- Generator: sketchtool 53.2 (72643) - https://sketchapp.com -->
    <title>36345B1D-3AEE-4AC0-A300-DA6CC1BA77DD</title>
    <desc>Created with sketchtool.</desc>
    <g id="Ui-elements" stroke="none" stroke-width="1" fill="none" fill-rule="evenodd">
        <g transform="translate(-961.000000, -642.000000)" fill="#474747" fill-rule="nonzero" id="remove-user">
            <g transform="translate(961.000000, 642.000000)">
                <path d="M10.9447853,5.6809816 C9.2521227,5.6809816 7.74748466,6.50139877 6.80746012,7.76539877 C6.42645399,7.68549693 6.03720245,7.64417178 5.64417178,7.64417178 C2.53192638,7.64417178 0,10.1761472 0,13.2883436 C0,13.6949202 0.329570552,14.0245399 0.736196319,14.0245399 L6.90041718,14.0245399 C7.84500613,15.2195337 9.30679755,15.9877301 10.9447853,15.9877301 C13.7863067,15.9877301 16.0981595,13.6759264 16.0981595,10.8343558 C16.0981595,7.99278528 13.7863067,5.6809816 10.9447853,5.6809816 Z M10.9447853,14.5153374 C8.91504294,14.5153374 7.26380368,12.8640491 7.26380368,10.8343558 C7.26380368,8.80466258 8.91504294,7.15337423 10.9447853,7.15337423 C12.9744294,7.15337423 14.6257669,8.80466258 14.6257669,10.8343558 C14.6257669,12.8640491 12.9744294,14.5153374 10.9447853,14.5153374 Z" id="XMLID_464_"></path>
                <path d="M12.4171779,10.0981595 L9.47239264,10.0981595 C9.06576687,10.0981595 8.73619632,10.4277791 8.73619632,10.8343558 C8.73619632,11.2409325 9.06576687,11.5705521 9.47239264,11.5705521 L12.4171779,11.5705521 C12.8237055,11.5705521 13.1533742,11.2409325 13.1533742,10.8343558 C13.1533742,10.4277791 12.8237055,10.0981595 12.4171779,10.0981595 Z" id="XMLID_468_"></path>
                <path d="M8.72392638,3.09207362 C8.72392638,1.39386503 7.34238037,0.0122699387 5.64417178,0.0122699387 C3.94591411,0.0122699387 2.56441718,1.39386503 2.56441718,3.09207362 C2.56441718,4.79028221 3.94591411,6.17177914 5.64417178,6.17177914 C7.34238037,6.17177914 8.72392638,4.79028221 8.72392638,3.09207362 Z" id="XMLID_469_"></path>
            </g>
        </g>
    </g>
</svg>