<?xml version="1.0" encoding="UTF-8"?>
<svg width="12px" height="8px" viewBox="0 0 12 8" version="1.1" xmlns="http://www.w3.org/2000/svg" xmlns:xlink="http://www.w3.org/1999/xlink">
    <!-- Generator: sketchtool 53.2 (72643) - https://sketchapp.com -->
    <title>C1C40279-3F7E-413F-8FFE-204CF2355E67</title>
    <desc>Created with sketchtool.</desc>
    <g id="Notification" stroke="none" stroke-width="1" fill="none" fill-rule="evenodd" opacity="0.900000036">
        <g id="Notification-chat" transform="translate(-588.000000, -307.000000)" fill="#248444" fill-rule="nonzero">
            <g id="Group-13-Copy-3" transform="translate(320.000000, 252.000000)">
                <g id="Group-3" transform="translate(46.000000, 8.000000)">
                    <path d="M222.152727,50.4181818 C222.050909,50.3163636 222,50.1636364 222,50.0618182 C222,49.96 222.050909,49.8072727 222.152727,49.7054545 L222.865455,48.9927273 C223.069091,48.7890909 223.374545,48.7890909 223.578182,48.9927273 L223.629091,49.0436364 L226.429091,52.0472727 C226.530909,52.1490909 226.683636,52.1490909 226.785455,52.0472727 L231.425455,47.1527273 L231.476364,47.1527273 C231.68,46.9490909 231.985455,46.9490909 232.189091,47.1527273 L232.901818,47.8654545 C233.105455,48.0690909 233.105455,48.3745455 232.901818,48.5781818 L226.938182,54.8472727 C226.836364,54.9490909 226.734545,55 226.581818,55 C226.429091,55 226.327273,54.9490909 226.225455,54.8472727 L222.254545,50.5709091 L222.152727,50.4181818 Z" id="sent"></path>
                </g>
            </g>
        </g>
    </g>
</svg>