<?xml version="1.0" encoding="UTF-8"?>
<svg width="19px" height="16px" viewBox="0 0 19 16" version="1.1" xmlns="http://www.w3.org/2000/svg" xmlns:xlink="http://www.w3.org/1999/xlink">
    <!-- Generator: sketchtool 53.2 (72643) - https://sketchapp.com -->
    <title>B8563BF8-6F69-40D1-B180-C37ED96A87F0</title>
    <desc>Created with sketchtool.</desc>
    <g id="Ui-elements" stroke="none" stroke-width="1" fill="none" fill-rule="evenodd">
        <g transform="translate(-904.000000, -642.000000)" fill="#474747" fill-rule="nonzero" id="user">
            <g transform="translate(904.000000, 642.000000)">
                <path d="M14.8678282,10.0552147 L13.7543067,9.89339877 L13.2563926,8.8843681 C13.1943558,8.75872393 13.0664049,8.67916564 12.9262822,8.67916564 C12.7862086,8.67916564 12.6582086,8.75872393 12.5961718,8.8843681 L12.0982086,9.89339877 L10.9846871,10.0552147 C10.8460368,10.0753374 10.7307975,10.1724663 10.6875092,10.3057178 C10.6442209,10.4389693 10.6803436,10.585227 10.7806626,10.6830429 L11.5864049,11.4683681 L11.3961718,12.5774724 C11.3725153,12.7155828 11.4292515,12.8551166 11.5425276,12.9374724 C11.6559509,13.0198282 11.806184,13.030773 11.9301595,12.9654969 L12.926184,12.4419141 L13.9222086,12.9654969 C13.9760491,12.993816 14.0348466,13.0077546 14.0933988,13.0077546 C14.0937914,13.0077546 14.094135,13.0077546 14.0944294,13.0077546 C14.2977669,13.0077546 14.4625276,12.8429448 14.4625276,12.6396564 C14.4625276,12.6087853 14.4586994,12.5787975 14.4515337,12.550135 L14.2659632,11.4683681 L15.0717055,10.6830429 C15.1720245,10.585227 15.2080982,10.4389202 15.1648098,10.3057178 C15.1217178,10.1724663 15.0064785,10.0753374 14.8678282,10.0552147 Z" id="XMLID_24_"></path>
                <path d="M12.9262822,5.69015951 C11.2337669,5.69015951 9.72922699,6.51042945 8.78920245,7.77423313 C8.41359509,7.69521472 8.02444172,7.65334969 7.62566871,7.65334969 C7.20147239,7.65334969 6.78822086,7.70071166 6.39057669,7.78984049 C4.51960736,8.20912883 2.99676074,9.55995092 2.33629448,11.3280982 C2.1071411,11.9415951 1.98149693,12.6051534 1.98149693,13.2975215 C1.98149693,13.7040982 2.31111656,14.0337178 2.71769325,14.0337178 L8.88191411,14.0337178 C9.82650307,15.2287117 11.2882945,15.996908 12.9262822,15.996908 C15.7679018,15.996908 18.0796564,13.6851043 18.0796564,10.8435337 C18.0796564,8.00196319 15.7679018,5.69015951 12.9262822,5.69015951 Z M12.9262822,14.5245153 C12.2591902,14.5245153 11.6335706,14.3452761 11.0934479,14.0337178 C9.99013497,13.3973006 9.24530061,12.206184 9.24530061,10.8435337 C9.24530061,9.86144785 9.63263804,8.9687362 10.2616442,8.30797546 C10.9325644,7.60323926 11.8786258,7.16255215 12.9262822,7.16255215 C14.9560245,7.16255215 16.6072638,8.81384049 16.6072638,10.8435337 C16.6072638,12.873227 14.9560245,14.5245153 12.9262822,14.5245153 Z" id="XMLID_25_"></path>
                <path d="M1.60107975,3.10120245 C1.60107975,4.26272393 2.50252761,5.2169816 3.64250307,5.30277301 C3.28019632,4.64991411 3.07347239,3.89928834 3.07347239,3.10120245 C3.07347239,2.30311656 3.28019632,1.55244172 3.64250307,0.899631902 C2.50252761,0.985374233 1.60107975,1.93968098 1.60107975,3.10120245 Z" id="XMLID_28_"></path>
                <path d="M4.58841718,6.86257669 C4.33467485,6.80971779 4.07396319,6.78213497 3.80966871,6.78213497 C1.70900613,6.78218405 0,8.49119018 0,10.5919018 C0,10.9984785 0.329619632,11.3280982 0.736196319,11.3280982 L0.786503067,11.3280982 C1.35592638,9.35366871 2.75916564,7.72942331 4.58841718,6.86257669 Z" id="XMLID_29_"></path>
                <path d="M5.11489571,1.3209816 C4.75715337,1.82404908 4.54586503,2.43823313 4.54586503,3.10115337 C4.54586503,3.76407362 4.75715337,4.37825767 5.11489571,4.88132515 C5.67357055,5.66689571 6.59047853,6.18090798 7.62566871,6.18090798 C9.3238773,6.18090798 10.7054233,4.79936196 10.7054233,3.10115337 C10.7054233,1.40294479 9.3238773,0.021398773 7.62566871,0.021398773 C6.59042945,0.0214478528 5.67357055,0.535411043 5.11489571,1.3209816 Z" id="XMLID_30_"></path>
            </g>
        </g>
    </g>
</svg>