<?xml version="1.0" encoding="UTF-8"?>
<svg width="16px" height="16px" viewBox="0 0 16 16" version="1.1" xmlns="http://www.w3.org/2000/svg" xmlns:xlink="http://www.w3.org/1999/xlink">
    <!-- Generator: sketchtool 53.2 (72643) - https://sketchapp.com -->
    <title>9CEF42C7-5657-4145-9A22-8CFE4DA6B88E</title>
    <desc>Created with sketchtool.</desc>
    <g id="Ui-elements" stroke="none" stroke-width="1" fill="none" fill-rule="evenodd">
        <g transform="translate(-826.000000, -603.000000)" fill="#474747" fill-rule="nonzero" id="verify">
            <g transform="translate(826.000000, 603.000000)">
                <path d="M1.07488627,10.1108078 C1.3296,10.3225725 1.53898039,10.5883922 1.51858824,10.7692549 C1.50660392,10.8772706 1.49998431,10.9870745 1.49998431,11.0986667 C1.49998431,12.7423686 2.79567059,14.074698 4.39378824,14.074698 C4.59118431,14.074698 4.78378039,14.0543059 4.97010196,14.0155608 C5.2838902,13.9504941 5.6544,14.0764549 5.87639216,14.3227922 C6.40407843,14.9077647 7.15648627,15.274698 7.99378824,15.274698 C8.87818039,15.274698 9.66989804,14.8663529 10.2005961,14.2231529 C10.4115137,13.9675922 10.7685333,13.8613333 11.0859294,13.9564863 C11.3421176,14.0332549 11.6133333,14.074698 11.8938039,14.074698 C13.4918902,14.074698 14.7876078,12.7420863 14.7876078,11.0986667 C14.7876078,10.9147922 14.7708235,10.7350588 14.7390118,10.5607843 C14.685302,10.2667922 14.8284235,9.90048627 15.0675137,9.67096471 C15.6330039,9.12856471 15.9876078,8.35698824 15.9876078,7.49866667 C15.9876078,6.56417255 15.5682196,5.73167059 14.9126902,5.18657255 C14.6580078,4.97477647 14.4485961,4.70895686 14.4689882,4.52806275 C14.4810039,4.42007843 14.4875922,4.31027451 14.4875922,4.19865098 C14.4875922,2.55494902 13.1918745,1.22265098 11.5937882,1.22265098 C11.3963922,1.22265098 11.2037961,1.24304314 11.0175059,1.28175686 C10.7037176,1.3468549 10.3332078,1.22086275 10.1111843,0.974556863 C9.58349804,0.389552941 8.8310902,0.0226509804 7.99378824,0.0226509804 C7.15651765,0.0226509804 6.4041098,0.389552941 5.87639216,0.974556863 C5.6544,1.22054902 5.2838902,1.3468549 4.97010196,1.28175686 C4.78381176,1.24304314 4.59118431,1.22265098 4.39378824,1.22265098 C2.79570196,1.22265098 1.49998431,2.55526275 1.49998431,4.19865098 C1.49998431,4.35705098 1.51228235,4.51243922 1.53596863,4.66396863 C1.57556078,4.91896471 1.3964549,5.23334902 1.13606275,5.43827451 C0.446086275,5.98158431 0,6.83567059 0,7.79868235 C0,8.73317647 0.419388235,9.5657098 1.07488627,10.1108078 Z M7.5800854,10.1018708 C7.22150577,10.4892299 6.63967915,10.4892299 6.28127258,10.1018708 L4.26893473,7.92802344 C3.91035509,7.54085128 3.91035509,6.91232748 4.26893473,6.52515532 C4.62734131,6.13779622 5.20916792,6.13779622 5.56774755,6.52515532 L6.76670495,7.82015365 C6.85721516,7.91774122 7.00414282,7.91774122 7.09482609,7.82015365 L10.3412524,4.31317031 C10.699659,3.9258112 11.2814856,3.9258112 11.6400653,4.31317031 C11.8122596,4.49918494 11.909,4.7515666 11.909,5.01460437 C11.909,5.27764214 11.8122596,5.5300238 11.6400653,5.71603843 L7.5800854,10.1018708 Z" id="Shape"></path>
            </g>
        </g>
    </g>
</svg>