<?xml version="1.0" encoding="UTF-8"?>
<svg width="20px" height="14px" viewBox="0 0 20 14" version="1.1" xmlns="http://www.w3.org/2000/svg" xmlns:xlink="http://www.w3.org/1999/xlink">
    <!-- Generator: sketchtool 53.2 (72643) - https://sketchapp.com -->
    <title>6E831CBC-BEF5-400C-A097-DCAC1014AC64</title>
    <desc>Created with sketchtool.</desc>
    <g id="Ui-elements" stroke="none" stroke-width="1" fill="none" fill-rule="evenodd">
        <g transform="translate(-906.000000, -603.000000)" fill="#474747" id="coffe-cup-outline">
            <g transform="translate(906.000000, 603.000000)">
                <path d="M16.0837297,0.0885405405 L10.7084865,0.0885405405 L10.7084865,0.0904324324 L1.65048649,0.0904324324 L1.65048649,3.57756757 C1.65048649,7.32691892 4.68962162,10.3660541 8.43897297,10.3660541 C11.1950811,10.3660541 13.5625946,8.72010811 14.6262162,6.36091892 L16.0844865,6.36091892 C17.8136757,6.36091892 19.2208649,4.95410811 19.2208649,3.22454054 C19.2204865,1.49497297 17.8132973,0.0885405405 16.0837297,0.0885405405 Z M16.0837297,4.71043243 L15.1256757,4.71043243 C15.1877297,4.34113514 15.2282162,3.96464865 15.2282162,3.57756757 L15.2282162,1.73902703 L16.0844865,1.73902703 C16.9036757,1.73902703 17.5703784,2.40535135 17.5703784,3.22454054 C17.5703784,4.04372973 16.9029189,4.71043243 16.0837297,4.71043243 Z" id="Shape" fill-rule="nonzero"></path>
                <rect id="Rectangle" x="0" y="11.375" width="17.5" height="2.625" rx="1.3125"></rect>
            </g>
        </g>
    </g>
</svg>