<?xml version="1.0" encoding="UTF-8"?>
<svg width="64px" height="64px" viewBox="0 0 64 64" version="1.1" xmlns="http://www.w3.org/2000/svg" xmlns:xlink="http://www.w3.org/1999/xlink">
    <!-- Generator: sketchtool 53.2 (72643) - https://sketchapp.com -->
    <title>E58252BE-E658-4827-9F47-868902367DF3</title>
    <desc>Created with sketchtool.</desc>
    <g id="Ui-elements" stroke="none" stroke-width="1" fill="none" fill-rule="evenodd">
        <g transform="translate(-1020.000000, -587.000000)" fill="#9B9B9B" fill-rule="nonzero" id="empty-notification">
            <g transform="translate(1020.000000, 587.000000)">
                <path d="M63.2675781,59.7319336 L4.26806637,0.732421875 C3.29150387,-0.244140625 1.70849612,-0.244140625 0.732421875,0.732421875 C-0.244140625,1.70849612 -0.244140625,3.29150388 0.732421875,4.26757812 L13.3935547,16.9291992 C12.8842774,18.550293 12.625,20.2949219 12.625,22.125 L12.625,50.125 L9.375,50.125 C7.99414062,50.125 6.875,51.2441406 6.875,52.625 C6.875,54.0058594 7.99414062,55.125 9.375,55.125 L25.5473632,55.125 C25.3544922,55.7583007 25.25,56.4291992 25.25,57.125 C25.25,60.9160156 28.3339844,64 32.125,64 C35.9160156,64 39,60.9160156 39,57.125 C39,56.4291993 38.8950195,55.7583008 38.7021485,55.125 L51.5893555,55.125 L59.7319336,63.2675781 C60.2202149,63.7558594 60.8603515,64 61.5,64 C62.1396485,64 62.7792969,63.7558594 63.2675781,63.2675781 C64.2441406,62.2915039 64.2441406,60.7084961 63.2675781,59.7319336 Z M32.125,59 C31.0908202,59 30.25,58.1586914 30.25,57.125 C30.25,56.0908203 31.0908202,55.25 32.125,55.25 C33.1586914,55.25 34,56.0908203 34,57.125 C34,58.1586914 33.1586914,59 32.125,59 Z M36.8393555,40.375 L17.625,40.375 L17.625,22.125 C17.625,21.8095703 17.637207,21.4995117 17.6577149,21.1933594 L36.8393555,40.375 Z M17.625,50.125 L17.625,45.375 L41.8393555,45.375 L46.5893555,50.125 L17.625,50.125 Z M21.3271485,10.3759765 C20.7832031,9.10693362 21.3710937,7.637207 22.640625,7.09326175 C24.7675781,6.18164062 27.1098632,5.60644525 29.625,5.371582 L29.625,2.5 C29.625,1.11914062 30.7441406,0 32.125,0 C33.5058594,0 34.625,1.11914062 34.625,2.5 L34.625,5.36962888 C44.8847656,6.31982425 51.625,12.8457031 51.625,22.125 L51.625,35.875 C51.625,37.2558594 50.5058594,38.375 49.125,38.375 C47.7441406,38.375 46.625,37.2558594 46.625,35.875 L46.625,22.125 C46.625,13.519043 39.2480469,10.3491211 32.3378906,10.2514649 L31.9121094,10.2514649 C29.241211,10.2895508 26.7167969,10.7866211 24.609375,11.6889649 C23.340332,12.2329101 21.8706055,11.6450195 21.3271485,10.3759765 Z" id="Shape"></path>
            </g>
        </g>
    </g>
</svg>