<?xml version="1.0" encoding="UTF-8"?>
<svg width="17px" height="16px" viewBox="0 0 17 16" version="1.1" xmlns="http://www.w3.org/2000/svg" xmlns:xlink="http://www.w3.org/1999/xlink">
    <!-- Generator: sketchtool 53.2 (72643) - https://sketchapp.com -->
    <title>06988630-2E01-48BF-9983-35D452BBEDA9</title>
    <desc>Created with sketchtool.</desc>
    <g id="Ui-elements" stroke="none" stroke-width="1" fill="none" fill-rule="evenodd">
        <g transform="translate(-856.000000, -603.000000)" fill="#474747" fill-rule="nonzero" id="expad-arrows">
            <g transform="translate(856.000000, 603.000000)">
                <path d="M15.6817722,0.00541772152 C15.8914937,0.00541772152 16.061519,0.175443038 16.0615696,0.385164557 L16.0615696,3.99139241 C16.0615696,4.20111392 15.8915949,4.37113924 15.6818228,4.37113924 L14.6691646,4.37113924 C14.4593924,4.37113924 14.2894177,4.20111392 14.2894177,3.99139241 L14.2894177,3.03068354 L11.3968101,5.92318987 C11.3226329,5.99731646 11.2254177,6.03443038 11.1282532,6.03443038 C11.031038,6.03443038 10.9338734,5.99736709 10.8596962,5.92318987 L10.1435949,5.20708861 C10.0724051,5.13589873 10.0323544,5.03929114 10.0323544,4.93858228 C10.0323544,4.83787342 10.0724051,4.74126582 10.1435949,4.67007595 L13.0362025,1.77756962 L12.0755443,1.77756962 C11.8657722,1.77756962 11.6957975,1.6075443 11.6957975,1.39782278 L11.6957975,0.385164557 C11.6957975,0.175443038 11.8657722,0.00541772152 12.0755443,0.00541772152 L15.6817722,0.00541772152 Z M3.02531646,1.77756962 L5.91782278,4.67007595 C5.98901266,4.74126582 6.02901266,4.83787342 6.02901266,4.93858228 C6.02901266,5.03929114 5.98901266,5.13589873 5.91782278,5.20708861 L5.20177215,5.92318987 C5.1275443,5.99731646 5.03032911,6.03443038 4.93316456,6.03443038 C4.83594937,6.03443038 4.73873418,5.99731646 4.66455696,5.92318987 L1.7721519,3.03073418 L1.7721519,3.99139241 C1.7721519,4.20111392 1.60217722,4.37113924 1.39240506,4.37113924 L0.379746835,4.37113924 C0.169974684,4.37113924 -1.02140518e-14,4.20111392 -1.02140518e-14,3.99139241 L-1.02140518e-14,0.385164557 C-1.02140518e-14,0.175443038 0.169974684,0.00541772152 0.379746835,0.00541772152 L3.98597468,0.00541772152 C4.19574684,0.00541772152 4.36572152,0.175443038 4.36572152,0.385164557 L4.36572152,1.39782278 C4.36572152,1.6075443 4.19574684,1.77756962 3.98597468,1.77756962 L3.02531646,1.77756962 Z M5.20172152,10.0371139 L5.91777215,10.7532152 C5.98896203,10.8244051 6.02896203,10.9210127 6.02896203,11.0217215 C6.02896203,11.1224304 5.98896203,11.219038 5.91777215,11.2902278 L3.02531646,14.1826329 L3.98597468,14.1826329 C4.19574684,14.1826329 4.36572152,14.3526582 4.36572152,14.5623797 L4.36572152,15.575038 C4.36572152,15.7847595 4.19574684,15.9547848 3.98597468,15.9547848 L0.379746835,15.9547848 C0.169974684,15.9547848 -5.32907052e-15,15.7847595 -5.32907052e-15,15.575038 L-5.32907052e-15,11.9688101 C-5.32907052e-15,11.7590886 0.169974684,11.5890633 0.379746835,11.5890633 L1.39240506,11.5890633 C1.60217722,11.5890633 1.7721519,11.7590886 1.7721519,11.9688101 L1.7721519,12.929519 L4.66455696,10.0371139 C4.81296203,9.88881013 5.05336709,9.88881013 5.20172152,10.0371139 Z M15.6817722,11.5891139 C15.8914937,11.5891139 16.061519,11.7591392 16.061519,11.9688608 L16.061519,15.5750886 C16.061519,15.7848101 15.8915443,15.9548354 15.6817722,15.9548354 L12.0755443,15.9548354 C11.8657722,15.9548354 11.6957975,15.7848101 11.6957975,15.5750886 L11.6957975,14.5624304 C11.6957975,14.3527089 11.8657722,14.1826835 12.0755443,14.1826835 L13.0362025,14.1826835 L10.1436456,11.2902785 C10.0724051,11.2190886 10.0323544,11.122481 10.0323544,11.0217722 C10.0323544,10.9210633 10.0724051,10.8244557 10.1435949,10.7532658 L10.8596962,10.0371646 C11.008,9.88886076 11.2484051,9.88886076 11.3967089,10.0371646 L14.2893671,12.9296709 L14.2893671,11.9688608 C14.2893671,11.7591392 14.4593418,11.5891139 14.6691139,11.5891139 L15.6817722,11.5891139 Z" id="Combined-Shape"></path>
            </g>
        </g>
    </g>
</svg>