<?xml version="1.0" encoding="UTF-8"?>
<svg width="17px" height="16px" viewBox="0 0 17 16" version="1.1" xmlns="http://www.w3.org/2000/svg" xmlns:xlink="http://www.w3.org/1999/xlink">
    <!-- Generator: sketchtool 53.2 (72643) - https://sketchapp.com -->
    <title>F63E8CD3-DE9F-4BDE-9DBF-DEA0DF706F54</title>
    <desc>Created with sketchtool.</desc>
    <g id="Ui-elements" stroke="none" stroke-width="1" fill="none" fill-rule="evenodd">
        <g transform="translate(-880.000000, -642.000000)" fill="#474747" fill-rule="nonzero" id="follower">
            <g transform="translate(880.000000, 642.000000)">
                <path d="M8.72392638,3.09207362 C8.72392638,1.39386503 7.34238037,0.0122699387 5.64417178,0.0122699387 C3.94591411,0.0122699387 2.56441718,1.39386503 2.56441718,3.09207362 C2.56441718,4.79028221 3.94591411,6.17177914 5.64417178,6.17177914 C7.34238037,6.17177914 8.72392638,4.79028221 8.72392638,3.09207362 Z" id="XMLID_337_"></path>
                <path d="M11.2199264,8.84142331 C10.9324172,8.55396319 10.4663067,8.55391411 10.1787485,8.84137423 C9.89128834,9.12883436 9.89128834,9.59499387 10.1787485,9.88255215 L11.1305521,10.8345031 L10.1787485,11.7862086 C9.89128834,12.0736687 9.89128834,12.5398282 10.1787485,12.8273865 C10.3225521,12.9711411 10.5109202,13.0430429 10.6993374,13.0430429 C10.8877055,13.0430429 11.0761718,12.9711411 11.2198282,12.8274356 L12.6922209,11.3551411 C12.8302822,11.2170307 12.9079264,11.0297914 12.9079264,10.8345521 C12.9079264,10.6393129 12.8303804,10.4520736 12.6922699,10.3139632 L11.2199264,8.84142331 Z" id="XMLID_338_"></path>
                <path d="M10.9447853,5.6809816 C9.2521227,5.6809816 7.74748466,6.50139877 6.80746012,7.76539877 C6.42645399,7.68549693 6.03720245,7.64417178 5.64417178,7.64417178 C2.53192638,7.64417178 0,10.1761472 0,13.2883436 C0,13.6949202 0.329570552,14.0245399 0.736196319,14.0245399 L6.90041718,14.0245399 C7.84500613,15.2195337 9.30679755,15.9877301 10.9447853,15.9877301 C13.7863067,15.9877301 16.0981595,13.6759264 16.0981595,10.8343558 C16.0981595,7.99283436 13.7863067,5.6809816 10.9447853,5.6809816 Z M10.9447853,14.5153374 C8.91504294,14.5153374 7.26380368,12.8640491 7.26380368,10.8343558 C7.26380368,8.80466258 8.91504294,7.15337423 10.9447853,7.15337423 C12.9744294,7.15337423 14.6257669,8.80466258 14.6257669,10.8343558 C14.6257669,12.8640491 12.9744294,14.5153374 10.9447853,14.5153374 Z" id="XMLID_340_"></path>
            </g>
        </g>
    </g>
</svg>