<?xml version="1.0" encoding="UTF-8"?>
<svg width="15px" height="14px" viewBox="0 0 15 14" version="1.1" xmlns="http://www.w3.org/2000/svg" xmlns:xlink="http://www.w3.org/1999/xlink">
    <!-- Generator: sketchtool 53.2 (72643) - https://sketchapp.com -->
    <title>8FDC40DA-6652-4966-9AD8-5C28AEE7DC4D</title>
    <desc>Created with sketchtool.</desc>
    <g id="Ui-elements" stroke="none" stroke-width="1" fill="none" fill-rule="evenodd">
        <g transform="translate(-253.000000, -642.000000)" fill="#474747" fill-rule="nonzero" id="icon-gift">
            <g transform="translate(253.136523, 642.000000)">
                <path d="M13.5882353,2.73823529 L10.5818039,2.73823529 C10.8823922,2.25619608 10.9367451,1.63470588 10.6677255,1.08870588 C10.3794902,0.50427451 9.79615686,0.141098039 9.14364706,0.141098039 C8.88286275,0.141098039 8.63086275,0.199843137 8.39478431,0.315960784 C7.82270588,0.597882353 7.37745098,1.14607843 7.06752941,1.64403922 C6.75760784,1.14580392 6.31262745,0.597607843 5.74027451,0.315686275 C5.5047451,0.199843137 5.25301961,0.141098039 4.99168627,0.141098039 C4.33972549,0.141098039 3.75584314,0.50427451 3.46815686,1.08843137 C3.19913725,1.63470588 3.2534902,2.25592157 3.55435294,2.73823529 L0.549019608,2.73823529 C0.247058824,2.73823529 0,2.98529412 0,3.2872549 L0,6.13501961 C0,6.43698039 0.247058824,6.68403922 0.549019608,6.68403922 L0.698901961,6.68403922 L0.698901961,9.03521569 L0.698901961,10.1332549 L0.698901961,12.9379216 C0.698901961,13.522902 1.17298039,13.9961569 1.75741176,13.9961569 L12.3798431,13.9961569 C12.9642745,13.9961569 13.4383529,13.5218039 13.4383529,12.9379216 L13.4383529,6.68403922 L13.5882353,6.68403922 C13.8901961,6.68403922 14.1372549,6.43698039 14.1372549,6.13501961 L14.1372549,3.2872549 C14.1372549,2.98529412 13.8901961,2.73823529 13.5882353,2.73823529 Z M8.88094118,1.30090196 C9.17356863,1.15678431 9.54113725,1.2852549 9.68333333,1.57376471 C9.82937255,1.8705098 9.70694118,2.23066667 9.41101961,2.37643137 C9.18372549,2.48815686 8.88890196,2.54498039 8.53396078,2.54498039 C8.37858824,2.54498039 8.22952941,2.53180392 8.08623529,2.51505882 C8.05988235,2.42694118 8.02419608,2.3434902 7.97752941,2.26662745 C8.21388235,1.87682353 8.52847059,1.47439216 8.88094118,1.30090196 Z M4.45419608,1.57321569 C4.55576471,1.36705882 4.76192157,1.23886275 4.9925098,1.23886275 C5.08419608,1.23886275 5.17313725,1.25972549 5.25603922,1.30062745 C5.60823529,1.47411765 5.92282353,1.87682353 6.15945098,2.26607843 C6.11278431,2.34321569 6.07737255,2.42639216 6.05129412,2.51478431 C5.908,2.53180392 5.75921569,2.54470588 5.60384314,2.54470588 C5.24917647,2.54470588 4.95380392,2.48788235 4.72705882,2.37643137 C4.43058824,2.23039216 4.30815686,1.86996078 4.45419608,1.57321569 Z M6.54266667,12.6238824 L2.07145098,12.6238824 L2.07145098,10.1329804 L6.54266667,10.1329804 L6.54266667,12.6238824 Z M2.07145098,9.03466667 L2.07145098,6.68376471 L6.54266667,6.68376471 L6.54266667,9.03466667 L2.07145098,9.03466667 Z M12.0658039,12.6238824 L7.59458824,12.6238824 L7.59458824,10.1329804 L12.0658039,10.1329804 L12.0658039,12.6238824 Z M12.0658039,9.03466667 L7.59458824,9.03466667 L7.59458824,6.68376471 L12.0658039,6.68376471 L12.0658039,9.03466667 Z" id="Shape"></path>
            </g>
        </g>
    </g>
</svg>