<?xml version="1.0" encoding="UTF-8"?>
<svg width="15px" height="13px" viewBox="0 0 15 13" version="1.1" xmlns="http://www.w3.org/2000/svg" xmlns:xlink="http://www.w3.org/1999/xlink">
    <!-- Generator: sketchtool 53.2 (72643) - https://sketchapp.com -->
    <title>3FE42D96-85B9-4DA8-BDC6-04CB4BC1A0DA</title>
    <desc>Created with sketchtool.</desc>
    <g id="Ui-elements" stroke="none" stroke-width="1" fill="none" fill-rule="evenodd">
        <g transform="translate(-796.000000, -604.000000)" fill="#474747" id="icon-support">
            <g transform="translate(796.000000, 604.000000)">
                <g>
                    <path d="M13.8634247,0.00705479452 L3.58945205,0.00705479452 C2.9730137,0.00705479452 2.47986301,0.51390411 2.47986301,1.11664384 L2.47986301,7.50020548 C2.47986301,8.11664384 2.98671233,8.60979452 3.58945205,8.60979452 L10.6716438,8.60979452 L12.2743836,10.2262329 C12.3428767,10.294726 12.4250685,10.3358219 12.5209589,10.3358219 C12.7127397,10.3358219 12.8771233,10.185137 12.8771233,9.97965753 L12.8771233,8.60979452 L13.8634247,8.60979452 C14.479863,8.60979452 14.9730137,8.10294521 14.9730137,7.50020548 L14.9730137,1.11664384 C14.9730137,0.500205479 14.4661644,0.00705479452 13.8634247,0.00705479452 Z M5.16479452,5.50020548 C4.60315068,5.50020548 4.13739726,5.03445205 4.13739726,4.47280822 C4.13739726,3.91116438 4.60315068,3.44541096 5.16479452,3.44541096 C5.72643836,3.44541096 6.19219178,3.91116438 6.19219178,4.47280822 C6.19219178,5.03445205 5.74013699,5.50020548 5.16479452,5.50020548 Z M8.76753425,5.50020548 C8.20589041,5.50020548 7.74013699,5.03445205 7.74013699,4.47280822 C7.74013699,3.91116438 8.20589041,3.44541096 8.76753425,3.44541096 C9.32917808,3.44541096 9.79493151,3.91116438 9.79493151,4.47280822 C9.79493151,5.03445205 9.32917808,5.50020548 8.76753425,5.50020548 Z M12.3565753,5.50020548 C11.7949315,5.50020548 11.3291781,5.03445205 11.3291781,4.47280822 C11.3291781,3.91116438 11.7949315,3.44541096 12.3565753,3.44541096 C12.9182192,3.44541096 13.3839726,3.91116438 13.3839726,4.47280822 C13.3839726,5.03445205 12.9182192,5.50020548 12.3565753,5.50020548 Z" id="Shape" fill-rule="nonzero"></path>
                    <path d="M1.84972603,7.52760274 L1.84972603,5.34952055 L0.726438356,5.34952055 C0.329178082,5.34952055 0.000410958904,5.67828767 0.000410958904,6.07554795 L0.000410958904,10.2673288 C-0.0132876712,10.6919863 0.315479452,11.0207534 0.726438356,11.0207534 L1.37027397,11.0207534 L1.37027397,11.924863 C1.37027397,12.0481507 1.47986301,12.1577397 1.60315068,12.1577397 C1.67164384,12.1577397 1.72643836,12.1303425 1.76753425,12.0892466 L2.82232877,11.0344521 L7.47986301,11.0344521 C7.87712329,11.0344521 8.20589041,10.7056849 8.20589041,10.3084247 L8.20589041,9.26732877 L3.58945205,9.26732877 C2.63054795,9.26732877 1.84972603,8.48650685 1.84972603,7.52760274 Z" id="Path"></path>
                </g>
            </g>
        </g>
    </g>
</svg>