<?xml version="1.0" encoding="UTF-8"?>
<svg width="15px" height="14px" viewBox="0 0 15 14" version="1.1" xmlns="http://www.w3.org/2000/svg" xmlns:xlink="http://www.w3.org/1999/xlink">
    <!-- Generator: sketchtool 53.2 (72643) - https://sketchapp.com -->
    <title>B0CA4D6C-3125-4839-B6FB-1B80CCBE97BF</title>
    <desc>Created with sketchtool.</desc>
    <g id="Ui-elements" stroke="none" stroke-width="1" fill="none" fill-rule="evenodd">
        <g transform="translate(-523.000000, -642.000000)" fill="#474747" id="icon-clock">
            <g transform="translate(523.706884, 642.000000)">
                <path d="M6.93456522,0 C3.10495652,0 0,3.10465217 0,6.93456522 C0,10.7644783 3.10495652,13.8691304 6.93456522,13.8691304 C10.7641739,13.8691304 13.8691304,10.7644783 13.8691304,6.93456522 C13.8691304,3.10465217 10.7641739,0 6.93456522,0 Z M6.93456522,12.060087 C4.10808696,12.060087 1.80904348,9.76043478 1.80904348,6.93456522 C1.80904348,4.10869565 4.10808696,1.80873913 6.93456522,1.80873913 C9.76104348,1.80873913 12.060087,4.10808696 12.060087,6.93426087 C12.060087,9.76043478 9.76104348,12.060087 6.93456522,12.060087 Z" id="Shape" fill-rule="nonzero"></path>
                <path d="M9.3933913,6.02304348 L7.88017391,6.02304348 L7.88017391,3.31617391 C7.88017391,2.81673913 7.47873913,2.41165217 6.97930435,2.41165217 C6.47986957,2.41165217 6.07813043,2.81673913 6.07813043,3.31617391 L6.07813043,6.93426087 C6.07813043,7.434 6.48169565,7.84243478 6.98113043,7.84243478 L9.39308696,7.84243478 C9.89252174,7.84243478 10.2976087,7.43217391 10.2976087,6.93273913 C10.2976087,6.43330435 9.89313043,6.02304348 9.3933913,6.02304348 Z" id="Path"></path>
            </g>
        </g>
    </g>
</svg>