<?xml version="1.0" encoding="UTF-8"?>
<svg width="14px" height="14px" viewBox="0 0 14 14" version="1.1" xmlns="http://www.w3.org/2000/svg" xmlns:xlink="http://www.w3.org/1999/xlink">
    <!-- Generator: sketchtool 53.2 (72643) - https://sketchapp.com -->
    <title>01FF1067-EBC6-4C8C-AAE1-267594F925E2</title>
    <desc>Created with sketchtool.</desc>
    <g id="Ui-elements" stroke="none" stroke-width="1" fill="none" fill-rule="evenodd">
        <g transform="translate(-676.000000, -604.000000)" fill="#474747" id="icon-setting">
            <g transform="translate(676.000000, 604.000000)">
                <path d="M13.9437918,6.21730112 C13.9216729,6.02067658 13.6924164,5.87292193 13.4941784,5.87292193 C12.8532491,5.87292193 12.2845056,5.49658736 12.0459851,4.91457249 C11.8023123,4.31845353 11.9594349,3.62324164 12.4371004,3.18507807 C12.5874572,3.04762825 12.6057249,2.81753903 12.4796208,2.65771004 C12.1515836,2.24114498 11.7787361,1.86486245 11.3716431,1.53875093 C11.2122305,1.41082528 10.978342,1.42862454 10.8401115,1.58168773 C10.4232342,2.04337546 9.67441636,2.21496654 9.09578439,1.9735316 C8.49362825,1.72023048 8.11391078,1.11005948 8.15107063,0.455078067 C8.16330112,0.249345725 8.01294424,0.0704684015 7.80783643,0.0465799257 C7.28541264,-0.0138438662 6.75840892,-0.0157174721 6.23442379,0.0424163569 C6.03165799,0.064795539 5.88130112,0.239457249 5.88811896,0.442587361 C5.9109145,1.09111524 5.5266171,1.6906171 4.9304461,1.93481041 C4.35873606,2.16833457 3.61517472,1.99820074 3.19913011,1.54062454 C3.06162825,1.38990335 2.83153903,1.37137546 2.67134572,1.49623048 C2.25217844,1.82510037 1.87095167,2.20169517 1.53989591,2.61482528 C1.41077323,2.77543494 1.42976952,3.00823048 1.58163569,3.14640892 C2.06840892,3.58722677 2.22558364,4.28847584 1.97269888,4.89146468 C1.73126394,5.46634944 1.13431227,5.83685502 0.450914498,5.83685502 C0.229152416,5.82972491 0.071197026,5.97857249 0.0469442379,6.18019331 C-0.0145724907,6.70563569 -0.0153011152,7.24101859 0.0439256506,7.77072862 C0.0658884758,7.96818587 0.302118959,8.11463941 0.502542751,8.11463941 C1.11156877,8.09907807 1.69628996,8.47614126 1.94157621,9.07304089 C2.18608178,9.66915985 2.02890706,10.3639554 1.55051301,10.8024833 C1.40088476,10.9399331 1.38188848,11.169658 1.50799257,11.329487 C1.83295911,11.7433978 2.20585874,12.1200446 2.61440892,12.4488625 C2.77465428,12.5779851 3.00781413,12.5597695 3.14672119,12.4067063 C3.56515985,11.9438736 4.31392565,11.7725948 4.89026766,12.0144981 C5.49393309,12.2670186 5.87365056,12.8771375 5.83649071,13.5324833 C5.82436431,13.7383197 5.97544981,13.9175093 6.17972491,13.9410335 C6.44697398,13.9722082 6.71583643,13.9877695 6.98542751,13.9877695 C7.24133086,13.9877695 7.49728625,13.9737175 7.75318959,13.9452491 C7.95600743,13.9228699 8.10626022,13.7482082 8.09944238,13.5447138 C8.07597026,12.8965502 8.46094424,12.2970483 9.05633457,12.0532714 C9.63189591,11.8181859 10.3723346,11.9902454 10.7884312,12.4473532 C10.9267138,12.5977621 11.1551896,12.6159257 11.3162677,12.491487 C11.7346543,12.1633978 12.1151004,11.7871152 12.4477175,11.3728401 C12.5767881,11.2125948 12.5585725,10.9794349 12.4059257,10.8413086 C11.9191524,10.4004907 11.761197,9.69913755 12.0140818,9.09656506 C12.2518216,8.52933086 12.8266022,8.1484684 13.4448401,8.1484684 L13.5313383,8.15070632 C13.7318662,8.16699628 13.9163643,8.01252788 13.9406691,7.80783643 C14.00229,7.28192565 14.0030186,6.74701115 13.9437918,6.21730112 Z M7.00494424,9.34153903 C5.71850558,9.34153903 4.67209665,8.29513011 4.67209665,7.00869145 C4.67209665,5.72230483 5.71850558,4.67584387 7.00494424,4.67584387 C8.29133086,4.67584387 9.33773978,5.72230483 9.33773978,7.00869145 C9.33773978,8.29513011 8.29133086,9.34153903 7.00494424,9.34153903 Z" id="Shape"></path>
            </g>
        </g>
    </g>
</svg>