<?xml version="1.0" encoding="UTF-8"?>
<svg width="11px" height="14px" viewBox="0 0 11 14" version="1.1" xmlns="http://www.w3.org/2000/svg" xmlns:xlink="http://www.w3.org/1999/xlink">
    <!-- Generator: sketchtool 53.2 (72643) - https://sketchapp.com -->
    <title>41391E34-B730-4FD9-83E0-C0BFB3257593</title>
    <desc>Created with sketchtool.</desc>
    <g id="Ui-elements" stroke="none" stroke-width="1" fill="none" fill-rule="evenodd">
        <g transform="translate(-946.000000, -603.000000)" fill="#474747" fill-rule="nonzero" id="icon-question">
            <g transform="translate(946.000000, 603.000000)">
                <path d="M6.23474317,10.4837049 L3.61368306,10.4837049 C3.4973224,10.4837049 3.39534426,10.5276557 3.30797814,10.6148689 C3.22053552,10.7023115 3.17689071,10.8041366 3.17689071,10.9206503 L3.17689071,13.5418251 C3.17689071,13.6583388 3.22068852,13.7603169 3.30797814,13.8476066 C3.39534426,13.9347814 3.49720765,13.9786557 3.61368306,13.9786557 L6.23474317,13.9786557 C6.35110383,13.9786557 6.45334973,13.9348962 6.54037158,13.8476066 C6.62796721,13.7603169 6.67168852,13.6583388 6.67168852,13.5418251 L6.67168852,10.9206503 C6.67168852,10.8041366 6.62808197,10.7023115 6.54037158,10.6148689 C6.45334973,10.5274262 6.35110383,10.4837049 6.23474317,10.4837049 Z" id="Path"></path>
                <path d="M9.67510929,2.63746995 C9.37651913,2.0874918 8.9907541,1.62357923 8.51739344,1.24489071 C8.0443388,0.866355191 7.5124918,0.564054645 6.92288525,0.338448087 C6.33316393,0.112918033 5.74711475,0 5.16454645,0 C2.95136066,0 1.26229508,0.968333333 0.0973114754,2.90503825 C0.0391311475,2.99963388 0.0190491803,3.10153552 0.0372185792,3.21078142 C0.0555027322,3.31987432 0.111923497,3.41091257 0.206557377,3.48370492 L1.99763934,4.84893443 C2.09227322,4.9070765 2.18331148,4.93618579 2.27071585,4.93618579 C2.40180328,4.93618579 2.51456831,4.87785246 2.60931694,4.76137705 C3.13343716,4.10620765 3.52302732,3.6875847 3.77781967,3.50546995 C4.09094536,3.29439891 4.48397814,3.18890164 4.95722404,3.18890164 C5.4013224,3.18890164 5.79255738,3.3054153 6.13123497,3.53821311 C6.46975956,3.77124044 6.63886885,4.04064481 6.63886885,4.34642623 C6.63886885,4.68846995 6.54802186,4.96525683 6.36594536,5.17640437 C6.18398361,5.38747541 5.87808743,5.59124044 5.44844809,5.78789071 C4.88072131,6.04268306 4.35992896,6.43770492 3.88691257,6.97284153 C3.41355191,7.50801639 3.17704372,8.07773224 3.17704372,8.68198907 L3.17704372,9.17340437 C3.17704372,9.31187432 3.21506557,9.44831694 3.29164481,9.583 C3.36814754,9.71779781 3.4609071,9.78508197 3.57019126,9.78508197 L6.19121311,9.78508197 C6.30772678,9.78508197 6.40955191,9.72877596 6.49699454,9.61555191 C6.5841694,9.50301639 6.62804372,9.38466667 6.62804372,9.2610765 C6.62804372,9.07911475 6.72814754,8.83495628 6.92820219,8.52932787 C7.12844809,8.22354645 7.37773224,7.98669399 7.67647541,7.81919126 C7.9602623,7.65907104 8.18212022,7.53001093 8.34246995,7.43159016 C8.50297268,7.33343716 8.71213115,7.17473224 8.97067213,6.95646995 C9.22909836,6.73797814 9.42934426,6.52136066 9.57114208,6.30665574 C9.7131694,6.09191257 9.8406612,5.81336612 9.95350273,5.4710929 C10.0665738,5.12893443 10.1228798,4.76122404 10.1228798,4.36811475 C10.1228033,3.76381967 9.97343169,3.18687432 9.67510929,2.63746995 Z" id="Path"></path>
            </g>
        </g>
    </g>
</svg>