<?xml version="1.0" encoding="UTF-8"?>
<svg width="13px" height="14px" viewBox="0 0 13 14" version="1.1" xmlns="http://www.w3.org/2000/svg" xmlns:xlink="http://www.w3.org/1999/xlink">
    <!-- Generator: sketchtool 53.2 (72643) - https://sketchapp.com -->
    <title>8804057D-757E-4AD7-B88E-B0C1EA6F00DB</title>
    <desc>Created with sketchtool.</desc>
    <g id="Ui-elements" stroke="none" stroke-width="1" fill="none" fill-rule="evenodd">
        <g transform="translate(-586.000000, -604.000000)" fill="#474747" id="icon-trash">
            <g transform="translate(586.000000, 604.000000)">
                <path d="M1.72952281,13.0243717 C1.72952281,13.0243717 1.97549037,13.9727286 3.24155593,13.9727286 L8.96616019,13.9727286 C10.2321642,13.9727286 10.4781318,13.0243717 10.4781318,13.0243717 L11.6082663,3.72608178 L0.599449814,3.72608178 L1.72952281,13.0243717 Z M8.30563366,5.12337546 C8.30563366,4.86611896 8.55203177,4.65762825 8.85606218,4.65762825 C9.1600926,4.65762825 9.40655221,4.86611896 9.40655221,5.12337546 L8.85606218,12.1097398 C8.85606218,12.3669963 8.60960257,12.575487 8.30563366,12.575487 C8.00166475,12.575487 7.75520514,12.3669442 7.75520514,12.1097398 L8.30563366,5.12337546 Z M5.55342954,5.12337546 C5.55342954,4.86611896 5.79988915,4.65762825 6.10385806,4.65762825 C6.40788848,4.65762825 6.65428658,4.86611896 6.65428658,5.12337546 L6.65428658,12.1097398 C6.65428658,12.3669963 6.40788848,12.575487 6.10385806,12.575487 C5.79982764,12.575487 5.55342954,12.3669442 5.55342954,12.1097398 L5.55342954,5.12337546 Z M3.35165394,4.65757621 C3.65568435,4.65757621 3.90208246,4.86606691 3.90208246,5.12332342 L4.45257249,12.1096877 C4.45257249,12.3669442 4.20611288,12.5754349 3.90208246,12.5754349 C3.59811355,12.5754349 3.35165394,12.3668922 3.35165394,12.1096877 L2.80122541,5.12337546 C2.80122541,4.86611896 3.04768503,4.65757621 3.35165394,4.65757621 Z M11.2779723,1.86376952 L8.85606218,1.86376952 L8.85606218,0.931546468 C8.85606218,0.224936803 8.58598378,0 7.75520514,0 L4.45251098,0 C3.69049747,0 3.35165394,0.312319703 3.35165394,0.931546468 L3.35165394,1.86382156 L0.929743832,1.86382156 C0.44297533,1.86382156 0.049021291,2.17645353 0.049021291,2.56278067 C0.049021291,2.94915985 0.44297533,3.26179182 0.929743832,3.26179182 L11.2779723,3.26179182 C11.7647408,3.26179182 12.1586948,2.94915985 12.1586948,2.56278067 C12.1586948,2.17645353 11.7647408,1.86376952 11.2779723,1.86376952 Z M7.75520514,1.86376952 L4.45257249,1.86376952 L4.452634,0.931494424 L7.75526664,0.931494424 L7.75526664,1.86376952 L7.75520514,1.86376952 Z" id="Shape"></path>
            </g>
        </g>
    </g>
</svg>