<?xml version="1.0" encoding="UTF-8"?>
<svg width="17px" height="14px" viewBox="0 0 17 14" version="1.1" xmlns="http://www.w3.org/2000/svg" xmlns:xlink="http://www.w3.org/1999/xlink">
    <!-- Generator: sketchtool 53.2 (72643) - https://sketchapp.com -->
    <title>8B700D72-8535-4D26-99D4-A7AAE6DD2D67</title>
    <desc>Created with sketchtool.</desc>
    <g id="Ui-elements" stroke="none" stroke-width="1" fill="none" fill-rule="evenodd">
        <g transform="translate(-341.000000, -642.000000)" fill="#474747" id="icon-camera">
            <g transform="translate(341.460630, 642.000000)">
                <path d="M15.4929412,2.79544118 C15.0730294,2.37561765 14.5665294,2.16564706 13.9730882,2.16564706 L12.0921176,2.16564706 L11.6639412,1.02370588 C11.5575294,0.749441176 11.3630882,0.512882353 11.0802353,0.314058824 C10.7975,0.115323529 10.5078235,0.0158823529 10.2110882,0.0158823529 L5.91164706,0.0158823529 C5.61494118,0.0158823529 5.32520588,0.115323529 5.04247059,0.314058824 C4.75973529,0.512882353 4.56526471,0.749441176 4.45888235,1.02370588 L4.03064706,2.16564706 L2.14967647,2.16564706 C1.55617647,2.16564706 1.04964706,2.37561765 0.629735294,2.79544118 C0.209911765,3.21529412 0,3.72188235 0,4.31532353 L0,11.8392353 C0,12.4327059 0.209911765,12.9393529 0.629735294,13.3590882 C1.04964706,13.779 1.55620588,13.9889706 2.14967647,13.9889706 L13.9728824,13.9889706 C14.5663235,13.9889706 15.0727941,13.779 15.4927353,13.3590882 C15.9125294,12.9393529 16.1225,12.4327059 16.1225,11.8392353 L16.1225,4.31532353 C16.1226176,3.72188235 15.9126471,3.21529412 15.4929412,2.79544118 Z M10.719,10.7350882 C9.98285294,11.4712647 9.09702941,11.8394412 8.06129412,11.8394412 C7.02555882,11.8394412 6.13979412,11.4712647 5.40358824,10.7350882 C4.66738235,9.99902941 4.29935294,9.113 4.29935294,8.0775 C4.29935294,7.04167647 4.6675,6.15594118 5.40358824,5.41973529 C6.13970588,4.68352941 7.02558824,4.3155 8.06129412,4.3155 C9.097,4.3155 9.98285294,4.68361765 10.719,5.41973529 C11.4551765,6.15585294 11.8232647,7.04167647 11.8232647,8.0775 C11.8232647,9.113 11.4552059,9.99894118 10.719,10.7350882 Z" id="Shape" fill-rule="nonzero"></path>
                <path d="M8.06129412,5.65891176 C7.39508824,5.65891176 6.82547059,5.89544118 6.35241176,6.36855882 C5.87935294,6.84161765 5.64282353,7.41114706 5.64282353,8.0775 C5.64282353,8.74358824 5.87935294,9.31320588 6.35241176,9.78626471 C6.82547059,10.2592353 7.39505882,10.4957647 8.06129412,10.4957647 C8.72741176,10.4957647 9.29708824,10.2592353 9.77014706,9.78626471 C10.2432059,9.31320588 10.4797647,8.74361765 10.4797647,8.0775 C10.4797647,7.41117647 10.2432059,6.84164706 9.77014706,6.36855882 C9.29711765,5.89547059 8.72741176,5.65891176 8.06129412,5.65891176 Z" id="Path"></path>
            </g>
        </g>
    </g>
</svg>