<?xml version="1.0" encoding="UTF-8"?>
<svg width="13px" height="14px" viewBox="0 0 13 14" version="1.1" xmlns="http://www.w3.org/2000/svg" xmlns:xlink="http://www.w3.org/1999/xlink">
    <!-- Generator: sketchtool 53.2 (72643) - https://sketchapp.com -->
    <title>F78E8D57-90B5-4FE3-B126-56F43184C054</title>
    <desc>Created with sketchtool.</desc>
    <g id="Ui-elements" stroke="none" stroke-width="1" fill="none" fill-rule="evenodd">
        <g transform="translate(-225.000000, -642.000000)" fill="#474747" id="icon-flag">
            <g transform="translate(224.000000, 642.000000)">
                <g transform="translate(0.969047, 0.000000)" id="Path">
                    <path d="M11.9615472,1.76056604 C11.8722642,1.67181132 11.7673962,1.62716981 11.6456226,1.62716981 C11.5851321,1.62716981 11.4575472,1.67683019 11.2641887,1.77483019 C11.0700377,1.87309434 10.8634717,1.98245283 10.6468679,2.10449057 C10.4294717,2.22573585 10.1721887,2.33562264 9.87501887,2.43388679 C9.57837736,2.53188679 9.30392453,2.58154717 9.05113208,2.58154717 C8.81735849,2.58154717 8.61184906,2.53716981 8.43407547,2.44815094 C7.84528302,2.17237736 7.33283019,1.96660377 6.89830189,1.83083019 C6.46350943,1.69532075 5.99596226,1.62716981 5.49539623,1.62716981 C4.63109434,1.62716981 3.64660377,1.90822642 2.54298113,2.46928302 C2.31528302,2.58286792 2.15203774,2.67083019 2.04637736,2.73528302 L1.94150943,1.96633962 C2.17845283,1.76056604 2.33139623,1.46075472 2.33139623,1.12237736 C2.33139623,0.502415094 1.82898113,0 1.20901887,0 C0.589056604,0 0.0863773585,0.502415094 0.0863773585,1.12237736 C0.0863773585,1.52679245 0.30245283,1.87837736 0.623132075,2.07596226 L2.13935849,13.1940755 C2.1845283,13.5250566 2.46769811,13.7651698 2.79286792,13.7651698 C2.82245283,13.7651698 2.85256604,13.7627925 2.8829434,13.7596226 C3.24430189,13.7099623 3.49735849,13.3773962 3.44796226,13.0160377 L2.83856604,8.54766038 C3.94430189,7.99901887 4.90079245,7.72245283 5.70539623,7.72245283 C6.0469434,7.72245283 6.38003774,7.77290566 6.70467925,7.87645283 C7.02958491,7.97973585 7.30007547,8.09120755 7.51483019,8.21245283 C7.72932075,8.33422642 7.98316981,8.44675472 8.27558491,8.54898113 C8.568,8.652 8.85671698,8.70350943 9.14173585,8.70350943 C9.86181132,8.70350943 10.7237358,8.43222642 11.7293585,7.88992453 C11.8556226,7.82441509 11.9478113,7.75996226 12.0064528,7.69709434 C12.0650943,7.63396226 12.0941509,7.54388679 12.0941509,7.42739623 L12.0941509,2.07622642 C12.0941509,1.95498113 12.0500377,1.84958491 11.9615472,1.76056604 Z"></path>
                </g>
            </g>
        </g>
    </g>
</svg>