<?xml version="1.0" encoding="UTF-8"?>
<svg width="17px" height="14px" viewBox="0 0 17 14" version="1.1" xmlns="http://www.w3.org/2000/svg" xmlns:xlink="http://www.w3.org/1999/xlink">
    <!-- Generator: sketchtool 53.2 (72643) - https://sketchapp.com -->
    <title>88CF8BCA-9033-41C0-B9F4-E281442A5911</title>
    <desc>Created with sketchtool.</desc>
    <g id="Ui-elements" stroke="none" stroke-width="1" fill="none" fill-rule="evenodd">
        <g transform="translate(-702.000000, -642.000000)" fill="#474747" id="icon-reply">
            <g transform="translate(702.454114, 642.000000)">
                <path d="M16.3354872,10.9602051 C15.7105128,8.29661538 13.7648718,4.58553846 7.88020513,3.80153846 L7.88020513,1.45276923 C7.88020513,0.963128205 7.58369231,0.521948718 7.13102564,0.335282051 C6.67835897,0.14825641 6.15748718,0.253076923 5.81179487,0.599846154 L0.468461538,5.96974359 C-0.155794872,6.59723077 -0.156153846,7.61097436 0.468102564,8.23846154 L5.81179487,13.608359 C6.15676923,13.9551282 6.67871795,14.0599487 7.13138462,13.8729231 C7.58405128,13.6858974 7.8805641,13.2447179 7.8805641,12.7554359 L7.8805641,10.4827692 C9.88830769,10.4852821 12.7827179,10.7494872 14.8417949,12.0310256 C15.1838974,12.2442564 15.6200513,12.2302564 15.9474359,11.9947692 C16.2741026,11.7607179 16.4277436,11.3522051 16.3354872,10.9602051 Z" id="Path"></path>
            </g>
        </g>
    </g>
</svg>