<?xml version="1.0" encoding="UTF-8"?>
<svg width="15px" height="14px" viewBox="0 0 15 14" version="1.1" xmlns="http://www.w3.org/2000/svg" xmlns:xlink="http://www.w3.org/1999/xlink">
    <!-- Generator: sketchtool 53.2 (72643) - https://sketchapp.com -->
    <title>EEF02AC7-4DDF-4117-8F58-9E49123054D1</title>
    <desc>Created with sketchtool.</desc>
    <g id="Ui-elements" stroke="none" stroke-width="1" fill="none" fill-rule="evenodd">
        <g transform="translate(-642.000000, -642.000000)" fill="#474747" id="icon-calendar">
            <g transform="translate(642.735978, 642.000000)">
                <path d="M4.94878528,7.71033538 C4.94878528,7.5352638 4.80678119,7.39343149 4.63156646,7.39343149 L3.52459305,7.39343149 C3.34957873,7.39343149 3.20754601,7.5352638 3.20754601,7.71033538 L3.20754601,8.81716564 C3.20754601,8.99246626 3.34957873,9.13435583 3.52459305,9.13435583 L4.63156646,9.13435583 C4.80678119,9.13435583 4.94878528,8.99246626 4.94878528,8.81716564 L4.94878528,7.71033538 L4.94878528,7.71033538 Z" id="Path"></path>
                <path d="M7.71525971,7.71033538 C7.71525971,7.5352638 7.57322699,7.39343149 7.39835583,7.39343149 L6.29123926,7.39343149 C6.11622495,7.39343149 5.97419223,7.5352638 5.97419223,7.71033538 L5.97419223,8.81716564 C5.97419223,8.99246626 6.11622495,9.13435583 6.29123926,9.13435583 L7.39835583,9.13435583 C7.57322699,9.13435583 7.71525971,8.99246626 7.71525971,8.81716564 L7.71525971,7.71033538 Z" id="Path"></path>
                <path d="M10.4818773,7.71033538 C10.4818773,7.5352638 10.3398446,7.39343149 10.1648303,7.39343149 L9.05785685,7.39343149 C8.88264213,7.39343149 8.74063804,7.5352638 8.74063804,7.71033538 L8.74063804,8.81716564 C8.74063804,8.99246626 8.88264213,9.13435583 9.05785685,9.13435583 L10.1648303,9.13435583 C10.3398446,9.13435583 10.4818773,8.99246626 10.4818773,8.81716564 L10.4818773,7.71033538 Z" id="Path"></path>
                <path d="M4.94878528,10.4770961 C4.94878528,10.3017382 4.80678119,10.1600204 4.63156646,10.1600204 L3.52459305,10.1600204 C3.34957873,10.1600204 3.20754601,10.3017382 3.20754601,10.4770961 L3.20754601,11.583726 C3.20754601,11.7589121 3.34957873,11.900773 3.52459305,11.900773 L4.63156646,11.900773 C4.80678119,11.900773 4.94878528,11.7588834 4.94878528,11.583726 L4.94878528,10.4770961 L4.94878528,10.4770961 Z" id="Path"></path>
                <path d="M7.71525971,10.4770961 C7.71525971,10.3017382 7.57322699,10.1600204 7.39835583,10.1600204 L6.29123926,10.1600204 C6.11622495,10.1600204 5.97419223,10.3017382 5.97419223,10.4770961 L5.97419223,11.583726 C5.97419223,11.7589121 6.11622495,11.900773 6.29123926,11.900773 L7.39835583,11.900773 C7.57322699,11.900773 7.71525971,11.7588834 7.71525971,11.583726 L7.71525971,10.4770961 Z" id="Path"></path>
                <path d="M10.4818773,10.4770961 C10.4818773,10.3017382 10.3398446,10.1600204 10.1649734,10.1600204 L9.05785685,10.1600204 C8.88264213,10.1600204 8.74063804,10.3017382 8.74063804,10.4770961 L8.74063804,11.583726 C8.74063804,11.7589121 8.88264213,11.900773 9.05785685,11.900773 L10.1649734,11.900773 C10.3398446,11.900773 10.4818773,11.7588834 10.4818773,11.583726 L10.4818773,10.4770961 L10.4818773,10.4770961 Z" id="Path"></path>
                <path d="M12.4612597,1.55614724 L12.4612597,3.24674029 C12.4612597,4.01087117 11.8413661,4.62664213 11.0773497,4.62664213 L10.2043395,4.62664213 C9.44026585,4.62664213 8.81215542,4.01087117 8.81215542,3.24674029 L8.81215542,1.55007771 L4.87726789,1.55007771 L4.87726789,3.24674029 C4.87726789,4.01087117 4.24918609,4.62664213 3.48522699,4.62664213 L2.61204499,4.62664213 C1.84805726,4.62664213 1.22819223,4.01087117 1.22819223,3.24674029 L1.22819223,1.55614724 C0.560458078,1.57627403 0.0117668712,2.12880164 0.0117668712,2.80793047 L0.0117668712,12.7156074 C0.0117668712,13.4075051 0.572568507,13.9757505 1.26446626,13.9757505 L12.4249571,13.9757505 C13.1158241,13.9757505 13.6776564,13.4063313 13.6776564,12.7156074 L13.6776564,2.80793047 C13.6776564,2.12880164 13.1289939,1.57627403 12.4612597,1.55614724 Z M12.0557751,12.0986339 C12.0557751,12.3976442 11.8133374,12.6402249 11.5142127,12.6402249 L2.15136196,12.6402249 C1.85223722,12.6402249 1.60979959,12.3976442 1.60979959,12.0986339 L1.60979959,6.98096115 C1.60979959,6.6818364 1.85220859,6.43925562 2.15136196,6.43925562 L11.514184,6.43925562 C11.8133088,6.43925562 12.0557464,6.6818364 12.0557464,6.98096115 L12.0557751,12.0986339 L12.0557751,12.0986339 Z" id="Shape" fill-rule="nonzero"></path>
                <path d="M2.6089816,3.72030675 L3.47251534,3.72030675 C3.73462168,3.72030675 3.9471411,3.50810225 3.9471411,3.24599591 L3.9471411,0.474482618 C3.9471411,0.212347648 3.73462168,0 3.47251534,0 L2.6089816,0 C2.34684663,0 2.13435583,0.212347648 2.13435583,0.474482618 L2.13435583,3.24599591 C2.13435583,3.50810225 2.34684663,3.72030675 2.6089816,3.72030675 Z" id="Path"></path>
                <path d="M10.1932311,3.72030675 L11.0567648,3.72030675 C11.3186994,3.72030675 11.5312188,3.50810225 11.5312188,3.24599591 L11.5312188,0.474482618 C11.5312474,0.212347648 11.318728,0 11.0567648,0 L10.1932311,0 C9.93115337,0 9.71863395,0.212347648 9.71863395,0.474482618 L9.71863395,3.24599591 C9.71863395,3.50810225 9.93115337,3.72030675 10.1932311,3.72030675 Z" id="Path"></path>
            </g>
        </g>
    </g>
</svg>