<?xml version="1.0" encoding="UTF-8"?>
<svg width="9px" height="10px" viewBox="0 0 9 10" version="1.1" xmlns="http://www.w3.org/2000/svg" xmlns:xlink="http://www.w3.org/1999/xlink">
    <!-- Generator: sketchtool 53.2 (72643) - https://sketchapp.com -->
    <title>5D75E3AF-0AC6-4FC4-A04F-A00571882153</title>
    <desc>Created with sketchtool.</desc>
    <g id="Designer-profile" stroke="none" stroke-width="1" fill="none" fill-rule="evenodd" opacity="0.800000012">
        <g id="Designer's-Topic" transform="translate(-558.000000, -585.000000)" fill="#474747">
            <g id="FAQ-card" transform="translate(391.000000, 254.000000)">
                <g id="Group-5" transform="translate(20.000000, 191.000000)">
                    <g id="faq-action" transform="translate(66.000000, 135.000000)">
                        <g id="Group-13">
                            <g transform="translate(81.000000, 0.000000)">
                                <g id="icon-like" transform="translate(0.000000, 5.000000)">
                                    <path d="M8.08396694,5.51979339 C8.51144628,5.53929752 8.87409091,5.20256198 8.89280992,4.76760331 C8.91152893,4.33264463 8.61095041,3.94161157 8.1831405,3.92280992 L5.34305785,3.56619835 C5.34305785,3.56619835 5.93491736,2.57619835 5.93491736,1.10938017 C5.93491736,0.131570248 5.23636364,0 4.82553719,0 C4.50235537,-0.000123966942 4.41533058,0.62607438 4.41533058,0.62607438 L4.41466942,0.62607438 C4.3414876,1.02760331 4.24619835,1.37826446 3.91508264,2.0238843 C3.54442149,2.74752066 3.0396281,2.6796281 2.45028926,3.32417355 C2.34628099,3.43768595 2.20652893,3.62504132 2.07033058,3.85557851 C2.05921488,3.8677686 2.04884298,3.88483471 2.03880165,3.90884298 C2.02665289,3.93743802 2.01210744,3.95727273 1.99929752,3.98371901 C1.97673554,4.02516529 1.95454545,4.06661157 1.93272727,4.11012397 C1.56797521,4.47487603 0.999710744,4.43760331 0.757727273,4.43760331 C0.272355372,4.43760331 0.0181404959,4.7196281 0.0181404959,5.17719008 L0.0179752066,8.5585124 C0.0179752066,9.0718595 0.228016529,9.245 0.757768595,9.245 L1.49735537,9.245 C1.86971074,9.245 2.16128099,9.45847107 2.60677686,9.61479339 C3.21698347,9.82619835 4.12830579,9.98487603 5.6981405,9.98487603 C5.97268595,9.98487603 6.82421488,9.98590909 6.82421488,9.98590909 C7.08491736,9.98590909 7.29433884,9.86681818 7.44545455,9.72301653 C7.50297521,9.66834711 7.56297521,9.58892562 7.58863636,9.43396694 C7.59280992,9.40995868 7.59727273,9.30929752 7.59661157,9.29570248 C7.61632231,8.85239669 7.34834711,8.69190083 7.19652893,8.64136364 C7.20066116,8.63995868 7.19793388,8.63615702 7.20619835,8.6364876 L7.6881405,8.65805785 C8.11595041,8.67756198 8.53822314,8.36938017 8.53822314,7.84528926 C8.53822314,7.41070248 8.18595041,7.10421488 7.75954545,7.08334711 L8.01508264,7.09520661 C8.44285124,7.11400826 8.80446281,6.77727273 8.8242562,6.34231405 C8.84289256,5.90739669 8.51144628,5.53933884 8.08396694,5.51979339 Z" id="Path"></path>
                                </g>
                            </g>
                        </g>
                    </g>
                </g>
            </g>
        </g>
    </g>
</svg>