<?xml version="1.0" encoding="UTF-8"?>
<svg width="15px" height="14px" viewBox="0 0 15 14" version="1.1" xmlns="http://www.w3.org/2000/svg" xmlns:xlink="http://www.w3.org/1999/xlink">
    <!-- Generator: sketchtool 53.2 (72643) - https://sketchapp.com -->
    <title>C5428D05-A2A6-481F-889A-706666D516B6</title>
    <desc>Created with sketchtool.</desc>
    <g id="Ui-elements" stroke="none" stroke-width="1" fill="none" fill-rule="evenodd">
        <g transform="translate(-373.000000, -642.000000)" fill="#474747" fill-rule="nonzero" id="icon-profile">
            <g transform="translate(373.624221, 642.000000)">
                <path d="M6.92878261,0.000304347826 C3.10252174,0.000304347826 0,3.10221739 0,6.92878261 C0,10.7553478 3.10221739,13.8572609 6.92878261,13.8572609 C10.7556522,13.8572609 13.8575652,10.7553478 13.8575652,6.92878261 C13.8575652,3.10221739 10.7556522,0.000304347826 6.92878261,0.000304347826 Z M6.92878261,2.072 C8.19486957,2.072 9.22082609,3.09826087 9.22082609,4.36373913 C9.22082609,5.62952174 8.19486957,6.65547826 6.92878261,6.65547826 C5.66330435,6.65547826 4.63734783,5.62952174 4.63734783,4.36373913 C4.63734783,3.09826087 5.66330435,2.072 6.92878261,2.072 Z M6.92726087,12.0457826 C5.66452174,12.0457826 4.508,11.585913 3.61595652,10.8247391 C3.39865217,10.6393913 3.27326087,10.3676087 3.27326087,10.0824348 C3.27326087,8.799 4.312,7.77182609 5.59573913,7.77182609 L8.26243478,7.77182609 C9.54647826,7.77182609 10.5812609,8.799 10.5812609,10.0824348 C10.5812609,10.367913 10.4564783,10.639087 10.2388696,10.8244348 C9.34713043,11.585913 8.19030435,12.0457826 6.92726087,12.0457826 Z" id="Shape"></path>
            </g>
        </g>
    </g>
</svg>