<?xml version="1.0" encoding="UTF-8"?>
<svg width="13px" height="14px" viewBox="0 0 13 14" version="1.1" xmlns="http://www.w3.org/2000/svg" xmlns:xlink="http://www.w3.org/1999/xlink">
    <!-- Generator: sketchtool 53.2 (72643) - https://sketchapp.com -->
    <title>B3804143-AD69-4F44-B0E8-EEAF02CFF6A4</title>
    <desc>Created with sketchtool.</desc>
    <g id="Ui-elements" stroke="none" stroke-width="1" fill="none" fill-rule="evenodd">
        <g transform="translate(-283.000000, -642.000000)" fill="#474747" id="icon-bell">
            <g transform="translate(283.427565, 642.000000)">
                <path d="M4.12416759,12.1813953 C4.12413439,12.1853284 4.12386877,12.1892288 4.12386877,12.1931619 C4.12386877,13.178996 4.93342292,13.9781712 5.93206008,13.9781712 C6.93069723,13.9781712 7.74025138,13.178996 7.74025138,12.1931619 C7.74025138,12.1892288 7.73998577,12.1853284 7.73995257,12.1813953 L4.12416759,12.1813953 Z" id="Path"></path>
                <path d="M11.7051842,11.0270649 L10.0778087,8.66713311 C10.0778087,7.94471906 10.0778087,6.17950635 10.0778087,5.72287224 C10.0778087,3.73727425 8.64535968,2.08215585 6.74500079,1.70916589 L6.74500079,0.802518395 C6.74496759,0.359322408 6.38101186,0 5.93202688,0 C5.4830419,0 5.11908617,0.359322408 5.11908617,0.802518395 L5.11908617,1.70919866 C3.21872727,2.0822214 1.78627826,3.7373398 1.78627826,5.72290502 C1.78627826,6.50021873 1.78627826,8.21662809 1.78627826,8.66716589 L0.158902767,11.0270977 C-0.012516996,11.2756702 -0.0306450593,11.5974314 0.111789723,11.8632441 C0.254224506,12.1290569 0.533848221,12.2952963 0.838472727,12.2952963 L11.025581,12.2952963 C11.3302055,12.2952963 11.6098292,12.1290241 11.752264,11.8632441 C11.894732,11.5973987 11.8765708,11.2756375 11.7051842,11.0270649 Z" id="Path"></path>
            </g>
        </g>
    </g>
</svg>