<?xml version="1.0" encoding="UTF-8"?>
<svg width="14px" height="14px" viewBox="0 0 14 14" version="1.1" xmlns="http://www.w3.org/2000/svg" xmlns:xlink="http://www.w3.org/1999/xlink">
    <!-- Generator: sketchtool 53.2 (72643) - https://sketchapp.com -->
    <title>C550EA64-9D17-4E47-A467-591747725DB1</title>
    <desc>Created with sketchtool.</desc>
    <g id="Ui-elements" stroke="none" stroke-width="1" fill="none" fill-rule="evenodd">
        <g transform="translate(-524.000000, -604.000000)" fill="#474747" id="icon-map">
            <g transform="translate(524.000000, 604.000000)">
                <g id="Shape">
                    <path d="M6.93685567,-8.8817842e-16 C3.11161332,-8.8817842e-16 5.32907052e-15,3.11247634 5.32907052e-15,6.93699107 C5.32907052e-15,10.7622284 3.11161332,13.8738376 6.93685567,13.8738376 C10.762098,13.8738376 13.8737113,10.7622284 13.8737113,6.93699107 C13.8738559,3.11247634 10.762098,-8.8817842e-16 6.93685567,-8.8817842e-16 Z M12.1069871,6.93698196 C12.1069871,8.11942268 11.705768,9.21017784 11.0361856,10.0823273 C10.8467526,9.93355928 10.6454485,9.53423454 10.8348814,9.11988144 C11.0257036,8.70300258 11.0755876,7.73853608 11.0321443,7.36320619 C10.9900902,6.98825515 10.7953531,6.08377577 10.2653196,6.07518814 C9.73642268,6.06735825 9.37346907,5.89244845 9.05888402,5.2649201 C8.4064768,3.95922165 10.2836314,3.70866495 9.63109794,2.98515722 C9.44835825,2.78246392 8.50510825,3.82106186 8.36694845,2.43655928 C8.35760309,2.33843299 8.45231959,2.19042268 8.57860825,2.0364768 C10.626884,2.72462371 12.1069871,4.66050258 12.1069871,6.93698196 Z M6.22648196,1.81825 C6.10284536,2.05895619 5.77664175,2.15695619 5.5778634,2.33792784 C5.14646134,2.72866495 4.9609433,2.6746134 4.72806701,3.04956443 C4.49392784,3.42451546 3.73872165,3.96515722 3.73872165,4.23617268 C3.73872165,4.50706186 4.12023969,4.82745619 4.31093557,4.76506959 C4.50175773,4.70243041 5.00426031,4.70584021 5.30028093,4.80977577 C5.59630155,4.91434278 7.77200258,5.01890979 7.07880412,6.85817784 C6.85918814,7.44276804 5.89623711,7.3441366 5.63961856,8.3130232 C5.60135309,8.45459278 5.46862371,9.06166237 5.45927835,9.26018814 C5.44349227,9.56681701 5.67636856,10.7238737 5.38034794,10.7238737 C5.08306443,10.7238737 4.28315206,9.68919072 4.28315206,9.50165206 C4.28315206,9.3141134 4.07528093,8.65640206 4.07528093,8.09353351 C4.07528093,7.53041237 3.11763402,7.53950515 3.11763402,6.79124485 C3.11763402,6.11560052 3.63718557,5.78017784 3.52024227,5.45662629 C3.40582474,5.13484278 2.49275773,5.12297165 2.11262887,5.08432732 C2.77715979,3.35935052 4.34137113,2.07865722 6.22648196,1.81825 Z M5.31088918,11.8430438 C5.6213067,11.6792474 5.65287887,11.4675876 5.93450258,11.4558428 C6.25679124,11.4413196 6.51858763,11.3300593 6.88166753,11.2506237 C7.20395619,11.1800284 7.78008505,10.8533196 8.28801804,10.8111392 C8.71550515,10.7764098 9.55999742,10.8336186 9.78769588,11.2467088 C8.96947165,11.7898763 7.98934536,12.1069871 6.93698196,12.1069871 C6.3685567,12.1068608 5.82261082,12.0134072 5.31088918,11.8430438 Z" fill-rule="nonzero"></path>
                </g>
            </g>
        </g>
    </g>
</svg>