<?xml version="1.0" encoding="UTF-8"?>
<svg width="15px" height="14px" viewBox="0 0 15 14" version="1.1" xmlns="http://www.w3.org/2000/svg" xmlns:xlink="http://www.w3.org/1999/xlink">
    <!-- Generator: sketchtool 53.2 (72643) - https://sketchapp.com -->
    <title>16F994A6-66F6-4F8F-8FC1-DDEA8BB6CD31</title>
    <desc>Created with sketchtool.</desc>
    <g id="Ui-elements" stroke="none" stroke-width="1" fill="none" fill-rule="evenodd">
        <g transform="translate(-672.000000, -642.000000)" fill="#474747" id="icon-copy">
            <g transform="translate(672.437582, 642.000000)">
                <path d="M9.91666667,3.5 L0.583333333,3.5 C0.233333333,3.5 0,3.73333333 0,4.08333333 L0,13.4166667 C0,13.7666667 0.233333333,14 0.583333333,14 L9.91666667,14 C10.2666667,14 10.5,13.7666667 10.5,13.4166667 L10.5,4.08333333 C10.5,3.73333333 10.2666667,3.5 9.91666667,3.5 Z M8.16666667,11.375 C8.16666667,11.55 8.05,11.6666667 7.875,11.6666667 L2.625,11.6666667 C2.45,11.6666667 2.33333333,11.55 2.33333333,11.375 L2.33333333,6.125 C2.33333333,5.95 2.45,5.83333333 2.625,5.83333333 L7.875,5.83333333 C8.05,5.83333333 8.16666667,5.95 8.16666667,6.125 L8.16666667,11.375 Z" id="Shape" fill-rule="nonzero"></path>
                <path d="M13.4166667,0 L4.08333333,0 C3.73333333,0 3.5,0.233333333 3.5,0.583333333 L3.5,1.75 C3.5,2.1 3.73333333,2.33333333 4.08333333,2.33333333 L11.375,2.33333333 C11.55,2.33333333 11.6666667,2.45 11.6666667,2.625 L11.6666667,9.91666667 C11.6666667,10.2666667 11.9,10.5 12.25,10.5 L13.4166667,10.5 C13.7666667,10.5 14,10.2666667 14,9.91666667 L14,0.583333333 C14,0.233333333 13.7666667,0 13.4166667,0 Z" id="Path"></path>
            </g>
        </g>
    </g>
</svg>