<?xml version="1.0" encoding="UTF-8"?>
<svg width="14px" height="14px" viewBox="0 0 14 14" version="1.1" xmlns="http://www.w3.org/2000/svg" xmlns:xlink="http://www.w3.org/1999/xlink">
    <!-- Generator: sketchtool 53.2 (72643) - https://sketchapp.com -->
    <title>1FF95386-92E1-4E38-AA76-A9C9EF6843C4</title>
    <desc>Created with sketchtool.</desc>
    <g id="Ui-elements" stroke="none" stroke-width="1" fill="none" fill-rule="evenodd">
        <g transform="translate(-966.000000, -603.000000)" fill="#474747" fill-rule="nonzero" id="icon-tag">
            <g transform="translate(966.000000, 603.000000)">
                <path d="M13.6438568,7.43109007 L7.04355196,0.840032333 C6.80962587,0.606009238 6.49583834,0.407616628 6.10199538,0.244595843 C5.70802309,0.0815427252 5.34803233,0 5.0218291,0 L1.1816582,0 C0.861598152,0 0.584669746,0.117011547 0.350808314,0.350743649 C0.116946882,0.584605081 6.4665127e-05,0.861533487 6.4665127e-05,1.18159353 L6.4665127e-05,5.02176443 C6.4665127e-05,5.34793533 0.0815103926,5.7078291 0.244628176,6.10180139 C0.407745958,6.49577367 0.606170901,6.80639261 0.840096998,7.03417552 L7.44030485,13.6436952 C7.66802309,13.8714134 7.94475751,13.9852564 8.27115473,13.9852564 C8.59092379,13.9852564 8.87118245,13.8714134 9.11115473,13.6436952 L13.6437275,9.10193995 C13.8714457,8.87412471 13.9851917,8.59742263 13.9851917,8.2712194 C13.9851917,7.95119169 13.8714457,7.67115935 13.6438568,7.43109007 Z M3.78944111,3.78940878 C3.55852194,4.02019861 3.28013857,4.1356582 2.95393533,4.1356582 C2.62786143,4.1356582 2.34934873,4.02019861 2.11855889,3.78940878 C1.88776905,3.55858661 1.77240647,3.28020323 1.77240647,2.95403233 C1.77240647,2.6278291 1.88776905,2.34934873 2.11855889,2.11865589 C2.34938106,1.88783372 2.62786143,1.77237413 2.95393533,1.77237413 C3.28013857,1.77237413 3.55861894,1.88783372 3.78944111,2.11865589 C4.02013395,2.34934873 4.13559353,2.62786143 4.13559353,2.95403233 C4.13559353,3.28020323 4.02026328,3.55858661 3.78944111,3.78940878 Z" id="Shape"></path>
            </g>
        </g>
    </g>
</svg>