<?xml version="1.0" encoding="UTF-8"?>
<svg width="13px" height="14px" viewBox="0 0 13 14" version="1.1" xmlns="http://www.w3.org/2000/svg" xmlns:xlink="http://www.w3.org/1999/xlink">
    <!-- Generator: sketchtool 53.2 (72643) - https://sketchapp.com -->
    <title>B93CA8BA-F060-45B9-8BE8-E696562993C9</title>
    <desc>Created with sketchtool.</desc>
    <g id="Ui-elements" stroke="none" stroke-width="1" fill="none" fill-rule="evenodd">
        <g transform="translate(-315.000000, -604.000000)" fill="#474747" id="icon-upload">
            <g transform="translate(315.000000, 604.000000)">
                <path d="M12.5926097,12.9578063 C12.5665874,12.4255129 12.06571,12 11.4468476,12 L1.17272119,12 C0.537256506,12 0.0220669145,12.4477272 0.0220669145,13 C0.0220669145,13.5522728 0.537256506,14 1.17272119,14 L11.4468476,14 C12.0655539,14 12.5662751,13.5747106 12.5925576,13.0426407 C12.5932862,13.0282036 12.5975539,13.0146158 12.5975539,13 C12.5975539,12.985563 12.5932862,12.9721092 12.5926097,12.9578063 Z M3.44852788,5.71481041 L5.15095911,4.01003717 L5.15095911,9.54810409 C5.15095911,10.1911673 5.67307063,10.7124981 6.31712268,10.7124981 C6.96117472,10.7124981 7.4832342,10.1911673 7.4832342,9.54810409 L7.4832342,4.01003717 L9.18561338,5.71481041 C9.64745725,6.17675836 10.396171,6.17675836 10.8580149,5.71481041 C11.3198587,5.25286245 11.3198587,4.50394052 10.8580149,4.04194052 L7.16966543,0.348490706 C6.95904089,0.137814126 6.68835688,0.0281561338 6.41283271,0.00962825279 C6.38072119,0.0069739777 6.34985874,0 6.31707063,0 C6.28438662,0 6.2536803,0.0069739777 6.22172491,0.00957620818 C5.94599257,0.028 5.67515242,0.137710037 5.46442379,0.348490706 L1.77612639,4.04194052 C1.31428253,4.50394052 1.31428253,5.25286245 1.77612639,5.71481041 C2.23791822,6.17670632 2.98673606,6.17670632 3.44852788,5.71481041 Z" id="Shape"></path>
            </g>
        </g>
    </g>
</svg>