<?xml version="1.0" encoding="UTF-8"?>
<svg width="8px" height="14px" viewBox="0 0 8 14" version="1.1" xmlns="http://www.w3.org/2000/svg" xmlns:xlink="http://www.w3.org/1999/xlink">
    <!-- Generator: sketchtool 53.2 (72643) - https://sketchapp.com -->
    <title>4055C638-22B9-4D94-BD89-ACD4D3DFBE09</title>
    <desc>Created with sketchtool.</desc>
    <g id="Ui-elements" stroke="none" stroke-width="1" fill="none" fill-rule="evenodd">
        <g transform="translate(-830.000000, -642.000000)" fill="#474747" id="icon-money">
            <g transform="translate(830.000000, 642.000000)">
                <g id="Path">
                    <path d="M5.58354639,6.34889897 C5.03509278,6.04580619 4.452,5.81487835 3.87468041,5.57529072 C3.53983505,5.43673402 3.21942268,5.27508454 2.93653608,5.0499299 C2.37942268,4.60539381 2.4862268,3.88374433 3.13859794,3.59797113 C3.32334021,3.51714639 3.51674227,3.49116701 3.71303093,3.47962062 C4.46931959,3.43920825 5.18808247,3.57776495 5.87220619,3.90683711 C6.21282474,4.0713732 6.32540206,4.01941443 6.44086598,3.66436289 C6.56210309,3.28910515 6.66313402,2.90807423 6.77571134,2.5299299 C6.85076289,2.27590928 6.75839175,2.1084866 6.51880412,2.00168247 C6.08004124,1.80828041 5.62973196,1.66972371 5.1563299,1.59467216 C4.53859794,1.49941443 4.53859794,1.49652784 4.53571134,0.875909278 C4.53282474,0.00127010309 4.53282474,0.00127010309 3.65529897,0.00127010309 C3.52828866,0.00127010309 3.40127835,-0.00161649485 3.27426804,0.00127010309 C2.86437113,0.0128164948 2.79509278,0.0849814433 2.78354639,0.497764948 C2.7777732,0.682507216 2.78354639,0.867249485 2.78065979,1.05487835 C2.7777732,1.60333196 2.7748866,1.59467216 2.24952577,1.78518763 C0.97942268,2.2470433 0.194268041,3.11302268 0.110556701,4.49858969 C0.0355051546,5.72539381 0.676329897,6.55384742 1.68375258,7.15714639 C2.30437113,7.52951753 2.99138144,7.74889897 3.64952577,8.04044536 C3.90643299,8.15302268 4.15179381,8.28291959 4.36540206,8.46188866 C4.99756701,8.98436289 4.88210309,9.85322887 4.13158763,10.182301 C3.73035052,10.3583835 3.30602062,10.4016825 2.87014433,10.3468371 C2.19756701,10.2631258 1.55385567,10.0870433 0.947670103,9.77240412 C0.592618557,9.58766186 0.488701031,9.63673402 0.367463918,10.0206515 C0.263546392,10.3526103 0.171175258,10.6874557 0.0788041237,11.022301 C-0.0453195876,11.4726103 0.000865979381,11.5794144 0.430969072,11.7901361 C0.97942268,12.0557031 1.56540206,12.1913732 2.16292784,12.2866309 C2.6305567,12.3616825 2.64498969,12.3818887 2.65076289,12.8668371 C2.65364948,13.0862186 2.65364948,13.3084866 2.65653608,13.527868 C2.65942268,13.8049814 2.79220619,13.9666309 3.07797938,13.9724041 C3.40127835,13.9781773 3.72746392,13.9781773 4.05076289,13.9695175 C4.3163299,13.9637443 4.452,13.8194144 4.452,13.5509608 C4.452,13.2507546 4.46643299,12.9476619 4.4548866,12.6474557 C4.44045361,12.3414763 4.57323711,12.1856 4.8676701,12.1047753 C5.54602062,11.920033 6.12334021,11.5563216 6.56787629,11.0136412 C7.80334021,9.51261031 7.33282474,7.31590928 5.58354639,6.34889897 Z"></path>
                </g>
            </g>
        </g>
    </g>
</svg>