<?xml version="1.0" encoding="UTF-8"?>
<svg width="17px" height="14px" viewBox="0 0 17 14" version="1.1" xmlns="http://www.w3.org/2000/svg" xmlns:xlink="http://www.w3.org/1999/xlink">
    <!-- Generator: sketchtool 53.2 (72643) - https://sketchapp.com -->
    <title>9D80DF0D-B763-4F27-B0B9-5072A0CD6C9F</title>
    <desc>Created with sketchtool.</desc>
    <g id="Designer-profile" stroke="none" stroke-width="1" fill="none" fill-rule="evenodd" opacity="0.400000006">
        <g id="Designer's-Topic" transform="translate(-923.000000, -284.000000)" fill="#474747">
            <g id="FAQ-card" transform="translate(391.000000, 254.000000)">
                <g id="Group-3" transform="translate(20.000000, 22.000000)">
                    <g transform="translate(512.000000, 8.000000)" id="icon-heart">
                        <g>
                            <g transform="translate(0.000000, 0.000000)" id="Path">
                                <path d="M12.2765641,0.297948718 C10.8607692,0.297948718 9.61010256,1.00871795 8.86271795,2.09174359 C8.86271795,2.09174359 8.61035897,2.46938462 8.21010256,2.46938462 C7.81020513,2.46938462 7.55784615,2.09174359 7.55784615,2.09174359 C6.81010256,1.00871795 5.56015385,0.297948718 4.144,0.297948718 C1.85517949,0.297948718 0,2.15312821 0,4.44266667 C0,4.98328205 0.10625641,5.49769231 0.294358974,5.97117949 C1.45528205,9.576 6.64748718,13.8140513 8.21010256,13.9687692 C9.77307692,13.8140513 14.9645641,9.576 16.1262051,5.97117949 C16.3143077,5.49805128 16.4205641,4.98328205 16.4205641,4.44266667 C16.4205641,2.15312821 14.5653846,0.297948718 12.2765641,0.297948718 Z"></path>
                            </g>
                        </g>
                    </g>
                </g>
            </g>
        </g>
    </g>
</svg>