<?xml version="1.0" encoding="UTF-8"?>
<svg width="15px" height="14px" viewBox="0 0 15 14" version="1.1" xmlns="http://www.w3.org/2000/svg" xmlns:xlink="http://www.w3.org/1999/xlink">
    <!-- Generator: sketchtool 53.2 (72643) - https://sketchapp.com -->
    <title>A502E972-EA53-40FA-A0CC-E7D5F741560C</title>
    <desc>Created with sketchtool.</desc>
    <g id="Ui-elements" stroke="none" stroke-width="1" fill="none" fill-rule="evenodd">
        <g transform="translate(-433.000000, -642.000000)" fill="#474747" fill-rule="nonzero" id="icon-info">
            <g transform="translate(433.657287, 642.000000)">
                <path d="M11.949913,2.05008696 C9.21626087,-0.68326087 4.78404348,-0.683565217 2.05008696,2.05008696 C-0.683565217,4.78373913 -0.68326087,9.21595652 2.05008696,11.949913 C4.78373913,14.6829565 9.21595652,14.6832609 11.949913,11.949913 C14.6832609,9.21595652 14.6829565,4.78404348 11.949913,2.05008696 Z M7.91273913,10.0434783 C7.91273913,10.5477826 7.504,10.9565217 6.99969565,10.9565217 C6.4953913,10.9565217 6.08665217,10.5477826 6.08665217,10.0434783 L6.08665217,6.39130435 C6.08665217,5.887 6.4953913,5.47826087 6.99969565,5.47826087 C7.504,5.47826087 7.91273913,5.887 7.91273913,6.39130435 L7.91273913,10.0434783 Z M6.98356522,4.8306087 C6.45765217,4.8306087 6.10704348,4.45808696 6.118,3.99821739 C6.10704348,3.51613043 6.45765217,3.15486957 6.99421739,3.15486957 C7.53108696,3.15486957 7.87073913,3.51643478 7.882,3.99821739 C7.88169565,4.45808696 7.5313913,4.8306087 6.98356522,4.8306087 Z" id="Shape"></path>
            </g>
        </g>
    </g>
</svg>