<?xml version="1.0" encoding="UTF-8"?>
<svg width="12px" height="16px" viewBox="0 0 12 16" version="1.1" xmlns="http://www.w3.org/2000/svg" xmlns:xlink="http://www.w3.org/1999/xlink">
    <!-- Generator: sketchtool 53.2 (72643) - https://sketchapp.com -->
    <title>E5E16C4D-D31C-425F-B099-2869DC73B093</title>
    <desc>Created with sketchtool.</desc>
    <g id="Ui-elements" stroke="none" stroke-width="1" fill="none" fill-rule="evenodd">
        <g transform="translate(-886.000000, -603.000000)" fill="#474747" fill-rule="nonzero" id="question-sign">
            <g transform="translate(886.000000, 603.000000)">
                <path d="M7.12542077,11.981377 L4.1299235,11.981377 C3.99693989,11.981377 3.88039344,12.0316066 3.78054645,12.1312787 C3.68061202,12.2312131 3.63073224,12.3475847 3.63073224,12.4807432 L3.63073224,15.4763716 C3.63073224,15.6095301 3.68078689,15.7260765 3.78054645,15.8258361 C3.88039344,15.9254645 3.99680874,15.9756066 4.1299235,15.9756066 L7.12542077,15.9756066 C7.25840437,15.9756066 7.37525683,15.9255956 7.47471038,15.8258361 C7.57481967,15.7260765 7.62478689,15.6095301 7.62478689,15.4763716 L7.62478689,12.4807432 C7.62478689,12.3475847 7.57495082,12.2312131 7.47471038,12.1312787 C7.37525683,12.0313443 7.25840437,11.981377 7.12542077,11.981377 Z" id="Path"></path>
                <path d="M11.0572678,3.01425137 C10.7160219,2.38570492 10.2751475,1.85551913 9.73416393,1.42273224 C9.19353005,0.990120219 8.58570492,0.64463388 7.91186885,0.386797814 C7.23790164,0.12904918 6.56813115,0 5.9023388,0 C3.37298361,0 1.44262295,1.10666667 0.111213115,3.32004372 C0.0447213115,3.42815301 0.0217704918,3.54461202 0.0425355191,3.66946448 C0.063431694,3.79414208 0.127912568,3.89818579 0.236065574,3.98137705 L2.28301639,5.54163934 C2.3911694,5.60808743 2.49521311,5.64135519 2.59510383,5.64135519 C2.74491803,5.64135519 2.87379235,5.57468852 2.9820765,5.44157377 C3.58107104,4.69280874 4.02631694,4.21438251 4.3175082,4.00625137 C4.67536612,3.76502732 5.12454645,3.64445902 5.66539891,3.64445902 C6.17293989,3.64445902 6.62006557,3.77761749 7.00712568,4.04367213 C7.39401093,4.30998907 7.58727869,4.61787978 7.58727869,4.96734426 C7.58727869,5.35825137 7.48345355,5.67457923 7.27536612,5.91589071 C7.06740984,6.15711475 6.71781421,6.38998907 6.22679781,6.61473224 C5.57796721,6.9059235 4.98277596,7.35737705 4.44218579,7.96896175 C3.90120219,8.58059016 3.6309071,9.23169399 3.6309071,9.92227322 L3.6309071,10.4838907 C3.6309071,10.6421421 3.67436066,10.7980765 3.76187978,10.952 C3.84931148,11.1060546 3.9553224,11.1829508 4.08021858,11.1829508 L7.07567213,11.1829508 C7.2088306,11.1829508 7.32520219,11.1186011 7.42513661,10.9892022 C7.52476503,10.8605902 7.5749071,10.7253333 7.5749071,10.5840874 C7.5749071,10.3761311 7.68931148,10.0970929 7.91794536,9.74780328 C8.14679781,9.3983388 8.43169399,9.12765027 8.77311475,8.93621858 C9.09744262,8.75322404 9.35099454,8.60572678 9.53425137,8.4932459 C9.71768306,8.38107104 9.95672131,8.19969399 10.2521967,7.95025137 C10.547541,7.70054645 10.7763934,7.45298361 10.9384481,7.20760656 C11.100765,6.96218579 11.2464699,6.64384699 11.3754317,6.2526776 C11.5046557,5.86163934 11.5690055,5.44139891 11.5690055,4.99213115 C11.568918,4.3015082 11.3982077,3.64214208 11.0572678,3.01425137 Z" id="Path"></path>
            </g>
        </g>
    </g>
</svg>