<?xml version="1.0" encoding="UTF-8"?>
<svg width="17px" height="8px" viewBox="0 0 17 8" version="1.1" xmlns="http://www.w3.org/2000/svg" xmlns:xlink="http://www.w3.org/1999/xlink">
    <!-- Generator: sketchtool 53.2 (72643) - https://sketchapp.com -->
    <title>D48FB465-A299-40AD-8DAE-3DB5F98B1A07</title>
    <desc>Created with sketchtool.</desc>
    <g id="Notification" stroke="none" stroke-width="1" fill="none" fill-rule="evenodd" opacity="0.900000036">
        <g id="Notification-chat" transform="translate(-583.000000, -145.000000)" fill="#248444" fill-rule="nonzero">
            <g id="Group-13-Copy" transform="translate(320.000000, 90.000000)">
                <g id="Group-3" transform="translate(46.000000, 8.000000)">
                    <path d="M217.152727,50.4181818 C217.050909,50.3163636 217,50.1636364 217,50.0618182 C217,49.96 217.050909,49.8072727 217.152727,49.7054545 L217.865455,48.9927273 C218.069091,48.7890909 218.374545,48.7890909 218.578182,48.9927273 L218.629091,49.0436364 L221.429091,52.0472727 C221.530909,52.1490909 221.683636,52.1490909 221.785455,52.0472727 L226.425455,47.1527273 L226.476364,47.1527273 C226.68,46.9490909 226.985455,46.9490909 227.189091,47.1527273 L227.901818,47.8654545 C228.105455,48.0690909 228.105455,48.3745455 227.901818,48.5781818 L221.938182,54.8472727 C221.836364,54.9490909 221.734545,55 221.581818,55 C221.429091,55 221.327273,54.9490909 221.225455,54.8472727 L217.254545,50.5709091 L217.152727,50.4181818 Z M225,54 L231.425455,47.1527273 L231.476364,47.1527273 C231.68,46.9490909 231.985455,46.9490909 232.189091,47.1527273 L232.901818,47.8654545 C233.105455,48.0690909 233.105455,48.3745455 232.901818,48.5781818 L226.938182,54.8472727 C226.836364,54.9490909 226.734545,55 226.581818,55 C226.429091,55 226.327273,54.9490909 226.225455,54.8472727 C225.340606,54.350303 224.932121,54.0678788 225,54 Z" id="seen"></path>
                </g>
            </g>
        </g>
    </g>
</svg>